<svg id="svg" version="1.1" xmlns="http://www.w3.org/2000/svg" xmlns:xlink="http://www.w3.org/1999/xlink" width="400" height="400" viewBox="0, 0, 400,400"><g id="svgg"><path id="path0" d="M7.600 188.400 C 7.600 188.620,7.049 188.800,6.376 188.800 C 5.663 188.800,5.256 188.967,5.400 189.200 C 5.536 189.420,5.449 189.600,5.207 189.600 C 4.688 189.600,3.879 190.229,2.672 191.569 C 2.193 192.101,1.447 192.904,1.015 193.353 C -1.025 195.475,-0.051 206.991,2.242 207.872 C 2.549 207.989,2.800 208.246,2.800 208.441 C 2.800 208.637,16.033 222.029,32.206 238.202 L 61.611 267.607 130.706 267.703 L 199.800 267.800 199.901 333.905 L 200.002 400.009 265.530 399.905 C 327.454 399.806,331.096 399.761,331.761 399.096 C 332.148 398.709,332.658 398.512,332.894 398.658 C 333.149 398.815,333.207 398.736,333.038 398.462 C 332.877 398.202,332.984 398.000,333.281 398.000 C 333.848 398.000,334.999 396.658,336.044 394.779 C 336.398 394.142,336.803 393.737,336.944 393.877 C 337.085 394.018,337.200 393.473,337.200 392.667 C 337.200 391.860,337.378 391.200,337.595 391.200 C 337.853 391.200,337.993 369.879,337.997 329.601 L 338.005 268.002 269.102 267.901 L 200.200 267.800 200.000 256.390 L 199.800 244.979 194.000 239.064 C 190.810 235.811,186.887 231.855,185.282 230.274 C 181.534 226.582,173.418 218.466,169.726 214.718 C 168.145 213.113,164.275 209.247,161.126 206.126 C 157.977 203.006,154.302 199.316,152.959 197.926 C 148.996 193.825,144.318 189.600,143.738 189.600 C 143.442 189.600,143.200 189.420,143.200 189.200 C 143.200 188.980,142.840 188.800,142.400 188.800 C 141.960 188.800,141.600 188.620,141.600 188.400 C 141.600 188.135,119.000 188.000,74.600 188.000 C 30.200 188.000,7.600 188.135,7.600 188.400 " stroke="none" fill="#fcc34b" fill-rule="evenodd"></path><path id="path1" d="M258.076 188.627 C 257.788 188.952,257.383 189.113,257.176 188.985 C 256.969 188.857,256.800 188.943,256.800 189.176 C 256.800 189.409,256.539 189.600,256.220 189.600 C 255.901 189.600,255.456 189.915,255.232 190.300 C 255.008 190.685,254.819 190.831,254.812 190.624 C 254.805 190.417,253.914 191.166,252.832 192.289 C 251.750 193.412,250.760 194.226,250.632 194.099 C 250.504 193.971,250.400 194.155,250.400 194.507 C 250.400 194.860,249.713 195.642,248.872 196.246 C 248.032 196.850,246.850 198.032,246.246 198.872 C 245.642 199.713,244.860 200.400,244.507 200.400 C 244.155 200.400,243.963 200.496,244.081 200.614 C 244.314 200.847,235.499 209.962,235.244 209.751 C 235.040 209.582,232.000 212.908,232.000 213.300 C 232.000 213.465,231.796 213.600,231.547 213.600 C 231.040 213.600,229.600 215.131,229.600 215.670 C 229.600 215.861,229.153 216.221,228.608 216.469 C 228.062 216.718,227.510 217.254,227.381 217.661 C 227.252 218.067,226.878 218.400,226.549 218.400 C 226.221 218.400,226.064 218.580,226.200 218.800 C 226.336 219.020,226.167 219.200,225.824 219.200 C 225.481 219.200,225.200 219.377,225.200 219.593 C 225.200 220.105,220.105 225.200,219.593 225.200 C 219.377 225.200,219.200 225.481,219.200 225.824 C 219.200 226.167,219.020 226.336,218.800 226.200 C 218.580 226.064,218.400 226.156,218.400 226.405 C 218.400 226.927,217.208 228.224,217.184 227.729 C 217.175 227.548,216.899 227.895,216.571 228.500 C 216.243 229.105,215.828 229.600,215.648 229.600 C 215.126 229.600,213.600 231.051,213.600 231.547 C 213.600 231.796,213.465 232.000,213.300 232.000 C 212.908 232.000,209.582 235.040,209.751 235.244 C 209.822 235.330,207.837 237.408,205.340 239.861 C 202.843 242.315,200.782 244.205,200.760 244.061 C 200.738 243.918,200.576 244.250,200.400 244.800 C 199.957 246.184,199.916 267.101,200.356 267.373 C 201.033 267.791,339.006 267.616,338.900 267.197 C 338.845 266.979,339.025 266.845,339.300 266.900 C 339.575 266.955,339.755 266.775,339.700 266.500 C 339.645 266.225,339.870 266.000,340.200 266.000 C 340.530 266.000,340.755 265.775,340.700 265.500 C 340.645 265.225,340.825 265.045,341.100 265.100 C 341.375 265.155,341.555 264.990,341.500 264.733 C 341.445 264.476,341.804 264.055,342.298 263.797 C 342.791 263.539,343.076 263.210,342.931 263.064 C 342.786 262.919,342.883 262.800,343.147 262.800 C 343.747 262.800,346.400 260.182,346.400 259.590 C 346.400 259.349,346.580 259.264,346.800 259.400 C 347.020 259.536,347.200 259.277,347.200 258.824 C 347.200 258.087,347.610 257.812,348.500 257.953 C 348.665 257.979,348.755 257.775,348.700 257.500 C 348.645 257.225,348.825 257.045,349.100 257.100 C 349.375 257.155,349.600 256.919,349.600 256.576 C 349.600 256.233,349.760 256.051,349.955 256.172 C 350.150 256.293,350.555 256.089,350.855 255.719 C 351.324 255.140,351.316 255.096,350.800 255.400 C 350.284 255.704,350.276 255.660,350.745 255.081 C 351.045 254.711,351.455 254.510,351.655 254.634 C 351.856 254.758,351.970 254.704,351.910 254.515 C 351.767 254.065,354.065 251.767,354.515 251.910 C 354.704 251.970,354.758 251.856,354.634 251.655 C 354.510 251.455,354.711 251.045,355.081 250.745 C 355.660 250.276,355.704 250.284,355.400 250.800 C 355.096 251.316,355.140 251.324,355.719 250.855 C 356.089 250.555,356.293 250.150,356.172 249.955 C 356.051 249.760,356.233 249.600,356.576 249.600 C 356.919 249.600,357.155 249.375,357.100 249.100 C 357.045 248.825,357.238 248.649,357.530 248.710 C 357.821 248.770,357.960 248.659,357.838 248.462 C 357.716 248.264,357.973 247.692,358.408 247.190 C 358.844 246.688,359.200 246.490,359.200 246.749 C 359.200 247.009,360.010 246.411,361.000 245.421 C 361.990 244.431,362.800 243.406,362.800 243.144 C 362.800 242.881,362.919 242.786,363.064 242.931 C 363.210 243.076,363.539 242.791,363.797 242.298 C 364.055 241.804,364.476 241.445,364.733 241.500 C 364.990 241.555,365.155 241.375,365.100 241.100 C 365.045 240.825,365.225 240.645,365.500 240.700 C 365.775 240.755,366.000 240.530,366.000 240.200 C 366.000 239.870,366.202 239.645,366.448 239.700 C 366.695 239.755,367.213 239.260,367.600 238.600 C 367.987 237.940,368.505 237.445,368.752 237.500 C 368.998 237.555,369.158 237.465,369.107 237.300 C 368.961 236.827,370.505 235.217,370.881 235.450 C 371.067 235.565,371.170 235.444,371.110 235.182 C 371.049 234.919,371.540 234.387,372.200 234.000 C 372.860 233.613,373.355 233.095,373.300 232.848 C 373.245 232.602,373.481 232.400,373.824 232.400 C 374.167 232.400,374.336 232.220,374.200 232.000 C 374.064 231.780,374.244 231.600,374.600 231.600 C 374.956 231.600,375.136 231.420,375.000 231.200 C 374.864 230.980,375.044 230.800,375.400 230.800 C 375.756 230.800,375.936 230.620,375.800 230.400 C 375.664 230.180,375.844 230.000,376.200 230.000 C 376.556 230.000,376.736 229.820,376.600 229.600 C 376.464 229.380,376.552 229.200,376.795 229.200 C 377.368 229.200,379.200 227.368,379.200 226.795 C 379.200 226.552,379.380 226.464,379.600 226.600 C 379.820 226.736,380.000 226.556,380.000 226.200 C 380.000 225.844,380.180 225.664,380.400 225.800 C 380.620 225.936,380.800 225.756,380.800 225.400 C 380.800 225.044,380.980 224.864,381.200 225.000 C 381.420 225.136,381.600 224.956,381.600 224.600 C 381.600 224.244,381.780 224.064,382.000 224.200 C 382.220 224.336,382.400 224.167,382.400 223.824 C 382.400 223.481,382.625 223.245,382.900 223.300 C 383.175 223.355,383.351 223.162,383.290 222.870 C 383.230 222.579,383.344 222.442,383.545 222.566 C 383.745 222.690,384.155 222.489,384.455 222.119 C 384.924 221.540,384.916 221.496,384.400 221.800 C 383.884 222.104,383.876 222.060,384.345 221.481 C 384.645 221.111,385.055 220.910,385.255 221.034 C 385.456 221.158,385.574 221.111,385.517 220.930 C 385.363 220.436,386.891 218.809,387.281 219.050 C 387.467 219.165,387.570 219.044,387.510 218.782 C 387.449 218.519,387.940 217.987,388.600 217.600 C 389.260 217.213,389.755 216.695,389.700 216.448 C 389.645 216.202,389.870 216.000,390.200 216.000 C 390.530 216.000,390.755 215.775,390.700 215.500 C 390.645 215.225,390.825 215.045,391.100 215.100 C 391.375 215.155,391.555 214.990,391.500 214.733 C 391.445 214.476,391.804 214.055,392.298 213.797 C 392.791 213.539,393.076 213.210,392.931 213.064 C 392.786 212.919,392.883 212.800,393.147 212.800 C 393.747 212.800,396.400 210.182,396.400 209.590 C 396.400 209.349,396.535 209.235,396.700 209.334 C 396.865 209.434,397.232 209.265,397.516 208.958 C 397.813 208.636,397.856 208.400,397.616 208.400 C 397.387 208.400,397.560 208.040,398.000 207.600 C 398.440 207.160,398.800 206.609,398.800 206.376 C 398.800 206.143,398.956 206.049,399.147 206.167 C 399.641 206.472,400.000 203.339,400.000 198.732 C 400.000 195.584,399.877 194.728,399.400 194.545 C 399.070 194.418,398.794 194.019,398.787 193.657 C 398.774 192.949,397.617 191.199,397.575 191.824 C 397.561 192.031,397.387 191.795,397.188 191.300 C 396.989 190.805,396.550 190.400,396.213 190.400 C 395.876 190.400,395.600 190.220,395.600 190.000 C 395.600 189.780,395.322 189.600,394.983 189.600 C 394.644 189.600,393.979 189.239,393.505 188.798 C 392.344 187.716,259.034 187.548,258.076 188.627 " stroke="none" fill="#fc8c04" fill-rule="evenodd"></path><path id="path2" d="M258.607 12.388 C 258.467 12.615,258.043 12.800,257.665 12.800 C 257.286 12.800,256.724 13.150,256.415 13.579 C 256.107 14.007,255.707 14.266,255.527 14.155 C 255.347 14.044,255.200 14.131,255.200 14.349 C 255.200 14.568,254.826 14.865,254.370 15.010 C 253.913 15.154,253.624 15.358,253.727 15.461 C 253.831 15.564,253.529 16.070,253.058 16.586 C 251.504 18.284,251.157 18.806,251.359 19.134 C 251.469 19.312,251.328 19.902,251.046 20.446 C 250.399 21.693,250.185 27.220,250.769 27.581 C 251.004 27.726,251.236 28.330,251.285 28.922 C 251.334 29.515,251.515 30.000,251.687 30.000 C 251.859 30.000,252.000 30.253,252.000 30.563 C 252.000 31.334,255.423 34.800,256.185 34.800 C 256.523 34.800,256.800 34.980,256.800 35.200 C 256.800 35.420,257.149 35.600,257.576 35.600 C 258.003 35.600,258.464 35.780,258.600 36.000 C 258.736 36.220,259.546 36.400,260.400 36.400 C 261.254 36.400,262.040 36.541,262.147 36.714 C 262.253 36.886,264.820 37.074,267.850 37.131 C 270.881 37.188,273.549 37.382,273.780 37.561 C 274.011 37.741,274.991 37.912,275.958 37.943 C 276.925 37.974,277.938 38.182,278.208 38.406 C 278.478 38.630,278.956 38.715,279.270 38.594 C 279.585 38.474,280.485 38.643,281.270 38.972 C 282.056 39.300,282.810 39.457,282.947 39.320 C 283.083 39.183,283.526 39.371,283.930 39.737 C 284.334 40.102,284.768 40.299,284.894 40.173 C 285.020 40.047,285.894 40.317,286.836 40.772 C 287.779 41.227,288.966 41.600,289.475 41.600 C 289.984 41.600,290.400 41.780,290.400 42.000 C 290.400 42.220,290.760 42.400,291.200 42.400 C 291.640 42.400,292.000 42.580,292.000 42.800 C 292.000 43.020,292.371 43.200,292.824 43.200 C 293.277 43.200,293.536 43.380,293.400 43.600 C 293.264 43.820,293.433 44.000,293.776 44.000 C 294.119 44.000,294.400 44.136,294.400 44.302 C 294.400 44.469,294.985 44.863,295.700 45.178 C 296.415 45.494,297.540 46.257,298.200 46.874 C 298.860 47.491,299.561 47.997,299.757 47.998 C 299.953 47.999,300.629 48.540,301.260 49.200 C 301.891 49.860,302.596 50.400,302.827 50.400 C 303.058 50.400,303.162 50.537,303.059 50.705 C 302.955 50.872,303.575 51.627,304.435 52.381 C 305.296 53.135,306.000 53.988,306.000 54.276 C 306.000 54.564,306.180 54.800,306.400 54.800 C 306.620 54.800,306.800 55.070,306.800 55.400 C 306.800 55.730,306.980 56.000,307.200 56.000 C 307.420 56.000,307.600 56.300,307.600 56.667 C 307.600 57.033,307.724 57.210,307.875 57.059 C 308.026 56.908,308.512 57.553,308.955 58.492 C 309.851 60.390,309.796 60.256,310.200 61.500 C 310.362 61.995,310.652 62.400,310.847 62.400 C 311.041 62.400,311.200 63.041,311.200 63.824 C 311.200 64.671,311.362 65.147,311.600 65.000 C 311.833 64.856,312.000 65.255,312.000 65.953 C 312.000 66.613,312.183 67.266,312.407 67.404 C 312.630 67.542,312.709 67.823,312.583 68.028 C 312.456 68.232,312.498 68.400,312.676 68.400 C 312.854 68.399,312.950 69.749,312.890 71.400 C 312.815 73.442,312.925 74.400,313.235 74.400 C 313.541 74.400,313.597 74.827,313.406 75.700 C 313.249 76.415,313.057 78.232,312.979 79.737 C 312.900 81.243,312.635 82.717,312.389 83.013 C 312.143 83.310,311.985 83.878,312.038 84.276 C 312.091 84.674,311.943 85.450,311.708 86.000 C 310.320 89.251,309.250 91.910,309.026 92.664 C 308.885 93.139,308.506 93.746,308.185 94.013 C 307.863 94.280,307.600 94.847,307.600 95.273 C 307.600 95.699,307.420 95.936,307.200 95.800 C 306.980 95.664,306.800 95.884,306.800 96.288 C 306.800 96.693,306.440 97.283,306.000 97.600 C 305.560 97.917,305.200 98.407,305.200 98.688 C 305.200 98.970,305.020 99.200,304.800 99.200 C 304.580 99.200,304.400 99.394,304.400 99.631 C 304.400 99.869,303.688 100.747,302.818 101.583 C 301.948 102.419,301.348 103.215,301.485 103.351 C 301.621 103.488,301.519 103.600,301.258 103.600 C 300.997 103.600,299.793 104.590,298.583 105.800 C 297.373 107.010,296.252 108.003,296.091 108.006 C 295.931 108.010,295.191 108.550,294.446 109.206 C 293.701 109.863,292.981 110.400,292.846 110.400 C 292.711 110.401,292.082 110.847,291.448 111.392 C 290.814 111.937,290.139 112.286,289.948 112.168 C 289.757 112.050,289.600 112.253,289.600 112.619 C 289.600 113.047,289.385 113.203,289.000 113.055 C 288.670 112.929,288.400 112.999,288.400 113.213 C 288.400 113.426,288.119 113.600,287.776 113.600 C 287.433 113.600,287.264 113.780,287.400 114.000 C 287.540 114.227,287.204 114.400,286.624 114.400 C 286.061 114.400,285.600 114.580,285.600 114.800 C 285.600 115.020,285.255 115.200,284.833 115.200 C 284.412 115.200,284.004 115.388,283.927 115.618 C 283.851 115.848,283.398 116.065,282.922 116.101 C 282.445 116.137,282.125 116.278,282.210 116.416 C 282.294 116.553,281.480 116.906,280.400 117.200 C 279.320 117.494,278.529 117.884,278.642 118.067 C 278.814 118.346,277.941 118.499,276.945 118.366 C 276.804 118.347,276.569 118.526,276.422 118.764 C 276.275 119.002,275.670 119.236,275.078 119.285 C 274.485 119.334,274.000 119.515,274.000 119.687 C 274.000 119.859,273.561 120.000,273.024 120.000 C 272.487 120.000,271.936 120.180,271.800 120.400 C 271.664 120.620,270.833 120.800,269.953 120.800 C 268.988 120.800,268.451 120.959,268.600 121.200 C 268.749 121.442,268.204 121.600,267.224 121.600 C 266.331 121.600,265.600 121.780,265.600 122.000 C 265.600 122.220,264.700 122.400,263.600 122.400 C 262.500 122.400,261.600 122.580,261.600 122.800 C 261.600 123.020,260.646 123.200,259.480 123.200 C 258.314 123.200,257.189 123.364,256.980 123.564 C 256.476 124.047,251.403 124.431,242.602 124.654 C 238.643 124.754,235.232 125.008,235.022 125.218 C 234.812 125.428,234.202 125.600,233.668 125.600 C 231.879 125.600,227.850 128.951,226.470 131.587 C 225.499 133.443,225.111 140.437,225.964 140.721 C 226.204 140.801,226.400 141.314,226.400 141.861 C 226.400 142.855,228.554 146.400,229.158 146.400 C 229.334 146.400,229.893 146.760,230.400 147.200 C 230.907 147.640,231.565 148.000,231.861 148.000 C 232.158 148.000,232.400 148.180,232.400 148.400 C 232.400 148.620,232.760 148.800,233.200 148.800 C 233.640 148.800,234.000 148.980,234.000 149.200 C 234.000 149.453,236.933 149.600,242.000 149.600 C 246.400 149.600,250.000 149.444,250.000 149.253 C 250.000 149.061,251.665 148.872,253.700 148.831 C 255.735 148.790,257.571 148.587,257.780 148.378 C 257.989 148.170,259.384 148.000,260.880 148.000 C 262.427 148.000,263.600 147.827,263.600 147.600 C 263.600 147.380,264.489 147.200,265.576 147.200 C 266.663 147.200,267.664 147.020,267.800 146.800 C 267.936 146.580,268.746 146.400,269.600 146.400 C 270.454 146.400,271.264 146.220,271.400 146.000 C 271.536 145.780,272.256 145.600,273.000 145.600 C 273.744 145.600,274.464 145.420,274.600 145.200 C 274.736 144.980,275.377 144.800,276.024 144.800 C 276.671 144.800,277.200 144.620,277.200 144.400 C 277.200 144.180,277.920 144.000,278.800 144.000 C 279.680 144.000,280.400 143.820,280.400 143.600 C 280.400 143.380,280.724 143.200,281.120 143.200 C 281.516 143.200,282.014 143.026,282.227 142.813 C 282.439 142.601,283.183 142.384,283.879 142.331 C 284.575 142.277,285.056 142.091,284.949 141.917 C 284.841 141.743,285.203 141.600,285.753 141.600 C 286.303 141.600,286.864 141.420,287.000 141.200 C 287.136 140.980,287.563 140.800,287.949 140.800 C 288.335 140.800,289.583 140.350,290.723 139.800 C 291.863 139.250,293.067 138.800,293.398 138.800 C 293.729 138.800,294.000 138.620,294.000 138.400 C 294.000 138.180,294.266 138.000,294.591 138.000 C 294.916 138.000,296.221 137.431,297.491 136.735 C 298.761 136.039,300.276 135.225,300.858 134.927 C 301.440 134.628,302.137 134.117,302.407 133.792 C 302.677 133.466,303.247 133.200,303.673 133.200 C 304.099 133.200,304.336 133.020,304.200 132.800 C 304.064 132.580,304.280 132.400,304.680 132.400 C 305.080 132.400,305.632 132.040,305.907 131.600 C 306.182 131.160,306.726 130.800,307.115 130.800 C 307.505 130.800,308.083 130.440,308.400 130.000 C 308.717 129.560,309.307 129.200,309.712 129.200 C 310.116 129.200,310.336 129.020,310.200 128.800 C 310.064 128.580,310.161 128.400,310.416 128.400 C 310.671 128.400,311.383 127.860,312.000 127.200 C 312.617 126.540,313.419 126.000,313.784 126.000 C 314.149 126.000,314.336 125.820,314.200 125.600 C 314.064 125.380,314.263 125.200,314.643 125.200 C 315.023 125.200,315.219 125.086,315.080 124.946 C 314.940 124.807,315.630 124.078,316.613 123.328 C 317.596 122.577,318.400 121.762,318.400 121.515 C 318.400 121.268,318.515 121.182,318.656 121.323 C 318.918 121.585,321.182 119.244,321.194 118.700 C 321.197 118.535,321.481 118.400,321.824 118.400 C 322.167 118.400,322.353 118.247,322.237 118.061 C 322.122 117.874,322.381 117.341,322.814 116.877 C 323.246 116.413,323.600 115.938,323.600 115.821 C 323.600 115.608,324.570 114.364,325.500 113.384 C 325.775 113.094,326.000 112.704,326.000 112.517 C 326.000 112.330,326.360 111.917,326.800 111.600 C 327.240 111.283,327.600 110.703,327.600 110.312 C 327.600 109.920,327.780 109.600,328.000 109.600 C 328.220 109.600,328.400 109.330,328.400 109.000 C 328.400 108.670,328.535 108.399,328.700 108.397 C 328.865 108.395,329.198 107.990,329.440 107.497 C 330.622 105.089,331.830 102.987,332.100 102.867 C 332.265 102.793,332.400 102.388,332.400 101.967 C 332.400 101.545,332.580 101.200,332.800 101.200 C 333.020 101.200,333.200 100.928,333.200 100.595 C 333.200 100.262,333.380 99.632,333.600 99.195 C 333.820 98.758,334.180 98.042,334.400 97.605 C 334.620 97.168,334.800 96.459,334.800 96.029 C 334.800 95.599,334.980 95.136,335.200 95.000 C 335.420 94.864,335.600 94.223,335.600 93.576 C 335.600 92.929,335.780 92.400,336.000 92.400 C 336.220 92.400,336.400 91.680,336.400 90.800 C 336.400 89.920,336.563 89.200,336.761 89.200 C 337.441 89.200,337.996 82.613,337.957 75.000 C 337.942 72.140,337.947 69.356,337.968 68.814 C 337.988 68.272,337.834 67.282,337.625 66.614 C 337.416 65.946,337.197 64.860,337.138 64.200 C 337.079 63.540,336.897 62.811,336.733 62.581 C 336.570 62.350,336.391 61.495,336.336 60.681 C 336.281 59.866,336.093 59.200,335.918 59.200 C 335.743 59.200,335.600 58.761,335.600 58.224 C 335.600 57.687,335.420 57.136,335.200 57.000 C 334.980 56.864,334.800 56.223,334.800 55.576 C 334.800 54.929,334.620 54.400,334.400 54.400 C 334.180 54.400,334.000 54.121,334.000 53.781 C 334.000 53.440,333.640 52.416,333.200 51.506 C 332.760 50.595,332.400 49.633,332.400 49.368 C 332.400 49.103,332.128 48.781,331.796 48.654 C 331.464 48.527,331.214 48.282,331.240 48.111 C 331.325 47.545,330.712 46.000,330.402 46.000 C 330.234 46.000,329.873 45.460,329.600 44.800 C 329.327 44.140,328.945 43.600,328.751 43.600 C 328.558 43.600,328.397 43.195,328.394 42.700 C 328.389 41.972,328.314 41.915,328.000 42.400 C 327.686 42.885,327.611 42.828,327.606 42.100 C 327.603 41.605,327.450 41.200,327.268 41.200 C 327.085 41.200,326.684 40.705,326.377 40.100 C 326.070 39.495,325.132 38.325,324.293 37.500 C 323.453 36.675,322.909 35.994,323.083 35.987 C 323.257 35.979,322.975 35.619,322.456 35.187 C 321.936 34.754,321.666 34.394,321.856 34.387 C 322.045 34.379,321.775 34.019,321.256 33.587 C 320.736 33.154,320.451 32.800,320.621 32.800 C 320.792 32.800,320.092 32.146,319.066 31.346 C 318.040 30.547,317.200 29.707,317.200 29.480 C 317.200 29.253,317.083 29.184,316.940 29.327 C 316.797 29.470,316.265 29.140,315.759 28.593 C 315.253 28.047,314.650 27.600,314.419 27.600 C 314.189 27.600,314.000 27.432,314.000 27.227 C 314.000 27.022,313.595 26.726,313.100 26.570 C 312.605 26.413,311.909 25.951,311.553 25.543 C 311.197 25.134,310.695 24.800,310.436 24.800 C 310.178 24.800,309.580 24.440,309.108 24.000 C 308.636 23.560,308.013 23.200,307.725 23.200 C 307.436 23.200,307.200 23.020,307.200 22.800 C 307.200 22.580,306.855 22.400,306.433 22.400 C 306.012 22.400,305.607 22.257,305.533 22.083 C 305.314 21.561,302.556 20.000,301.853 20.000 C 301.494 20.000,301.200 19.820,301.200 19.600 C 301.200 19.380,300.840 19.200,300.400 19.200 C 299.960 19.200,299.600 19.020,299.600 18.800 C 299.600 18.580,299.251 18.400,298.824 18.400 C 298.397 18.400,297.936 18.220,297.800 18.000 C 297.664 17.780,297.237 17.600,296.852 17.600 C 296.466 17.600,295.405 17.240,294.494 16.800 C 293.584 16.360,292.391 16.000,291.843 16.000 C 291.295 16.000,290.736 15.820,290.600 15.600 C 290.464 15.380,289.823 15.200,289.176 15.200 C 288.529 15.200,288.000 15.039,288.000 14.842 C 288.000 14.506,287.051 14.303,282.900 13.747 C 281.965 13.622,281.200 13.385,281.200 13.220 C 281.200 13.056,279.909 12.884,278.330 12.837 C 276.752 12.791,275.169 12.598,274.813 12.407 C 273.864 11.899,258.920 11.882,258.607 12.388 " stroke="none" fill="#e4ecfc" fill-rule="evenodd"></path><path id="path3" d="M62.000 329.566 C 62.000 370.162,62.137 391.579,62.397 391.667 C 62.615 391.740,62.834 392.295,62.884 392.900 C 62.934 393.505,63.115 394.000,63.287 394.000 C 63.459 394.000,63.600 394.256,63.600 394.568 C 63.600 395.289,67.083 398.800,67.798 398.800 C 68.093 398.800,68.408 399.025,68.500 399.300 C 68.632 399.697,82.230 399.822,134.334 399.905 L 200.002 400.009 199.901 333.905 L 199.800 267.800 130.900 267.699 L 62.000 267.598 62.000 329.566 " stroke="none" fill="#fce464" fill-rule="evenodd"></path><path id="path4" d="M194.500 0.264 C 194.005 0.369,193.600 0.623,193.600 0.828 C 193.600 1.033,193.418 1.200,193.197 1.200 C 192.620 1.200,190.400 3.246,190.400 3.778 C 190.400 4.023,190.040 4.483,189.600 4.800 C 189.160 5.117,188.800 5.697,188.800 6.088 C 188.800 6.480,188.620 6.800,188.400 6.800 C 188.156 6.800,188.000 8.659,188.000 11.576 C 188.000 14.329,188.169 16.458,188.400 16.600 C 188.620 16.736,188.800 17.157,188.800 17.535 C 188.800 17.914,189.160 18.483,189.600 18.800 C 190.040 19.117,190.401 19.562,190.402 19.788 C 190.407 20.719,206.013 35.600,206.983 35.600 C 207.297 35.600,207.664 35.780,207.800 36.000 C 207.936 36.220,208.811 36.400,209.744 36.400 C 210.677 36.400,211.660 36.620,211.930 36.890 C 212.317 37.277,212.585 37.277,213.205 36.890 C 213.636 36.620,214.701 36.400,215.571 36.400 C 216.441 36.400,217.264 36.220,217.400 36.000 C 217.536 35.780,217.957 35.600,218.335 35.600 C 218.714 35.600,219.283 35.240,219.600 34.800 C 219.917 34.360,220.335 34.000,220.529 34.000 C 221.462 34.000,236.400 18.372,236.400 17.395 C 236.400 17.068,236.580 16.800,236.800 16.800 C 237.020 16.800,237.200 16.078,237.200 15.195 C 237.200 14.312,237.419 13.239,237.686 12.811 C 238.068 12.200,238.068 11.743,237.686 10.688 C 237.419 9.948,237.200 8.771,237.200 8.072 C 237.200 7.372,237.020 6.800,236.800 6.800 C 236.580 6.800,236.400 6.440,236.400 6.000 C 236.400 5.560,236.250 5.200,236.068 5.200 C 235.885 5.200,235.480 4.705,235.168 4.100 C 234.492 2.792,233.790 2.000,233.304 2.000 C 233.110 2.000,232.518 1.597,231.988 1.103 C 231.140 0.313,230.513 0.189,226.707 0.059 C 219.898 -0.174,219.347 -0.013,215.934 3.206 C 212.450 6.492,212.806 6.419,210.644 4.300 C 208.429 2.130,207.285 1.200,206.829 1.200 C 206.630 1.200,206.392 0.975,206.300 0.700 C 206.131 0.193,196.502 -0.163,194.500 0.264 " stroke="none" fill="#142c3c" fill-rule="evenodd"></path><path id="path5" d="M321.876 34.257 C 321.743 34.390,322.031 34.831,322.517 35.236 C 323.003 35.642,323.252 35.979,323.071 35.987 C 322.891 35.994,323.034 36.291,323.390 36.648 C 324.492 37.749,324.396 37.071,323.228 35.505 C 322.618 34.686,322.009 34.124,321.876 34.257 M114.333 37.567 C 114.260 37.769,113.300 37.983,112.200 38.043 C 111.100 38.103,110.105 38.290,109.988 38.458 C 109.871 38.626,109.106 38.808,108.288 38.863 C 107.470 38.918,106.800 39.107,106.800 39.282 C 106.800 39.457,106.080 39.600,105.200 39.600 C 104.320 39.600,103.600 39.780,103.600 40.000 C 103.600 40.220,103.060 40.400,102.400 40.400 C 101.740 40.400,101.200 40.544,101.200 40.720 C 101.200 41.076,98.606 42.110,97.463 42.208 C 97.058 42.243,96.608 42.436,96.463 42.636 C 96.318 42.836,95.843 43.062,95.407 43.139 C 94.573 43.285,92.294 44.749,92.067 45.286 C 91.993 45.458,91.588 45.600,91.167 45.600 C 90.745 45.600,90.400 45.750,90.400 45.932 C 90.400 46.115,89.956 46.502,89.414 46.793 C 88.871 47.083,88.539 47.501,88.675 47.722 C 88.814 47.946,88.724 48.000,88.472 47.844 C 88.217 47.687,87.375 48.226,86.540 49.083 C 85.726 49.917,84.918 50.557,84.744 50.505 C 84.366 50.391,82.398 52.292,82.464 52.709 C 82.489 52.869,82.125 53.178,81.655 53.395 C 81.185 53.612,80.800 54.028,80.800 54.318 C 80.800 54.609,80.665 54.765,80.500 54.666 C 80.335 54.566,79.968 54.735,79.684 55.042 C 79.352 55.401,79.325 55.600,79.608 55.600 C 79.849 55.600,79.934 55.783,79.796 56.007 C 79.658 56.230,79.377 56.309,79.172 56.183 C 78.836 55.975,78.630 56.523,78.753 57.300 C 78.779 57.465,78.607 57.600,78.371 57.600 C 77.662 57.600,76.728 58.760,77.036 59.259 C 77.215 59.548,77.149 59.616,76.862 59.438 C 76.443 59.179,76.215 59.678,76.363 60.530 C 76.394 60.711,76.254 60.757,76.052 60.632 C 75.688 60.407,75.010 61.508,75.140 62.111 C 75.177 62.282,74.936 62.527,74.604 62.654 C 74.272 62.781,74.000 63.226,74.000 63.643 C 74.000 64.059,73.820 64.400,73.600 64.400 C 73.380 64.400,73.200 64.760,73.200 65.200 C 73.200 65.640,73.020 66.000,72.800 66.000 C 72.580 66.000,72.400 66.360,72.400 66.800 C 72.400 67.240,72.242 67.600,72.050 67.600 C 71.858 67.600,71.700 68.088,71.700 68.683 C 71.700 69.279,71.498 69.834,71.250 69.917 C 71.002 69.999,70.800 70.692,70.800 71.457 C 70.800 72.282,70.637 72.747,70.400 72.600 C 70.161 72.453,70.000 72.937,70.000 73.800 C 70.000 74.596,69.856 75.158,69.680 75.049 C 69.504 74.941,69.316 75.510,69.262 76.314 C 69.207 77.118,69.014 77.871,68.833 77.988 C 68.651 78.105,68.472 79.711,68.434 81.558 C 68.397 83.404,68.194 85.238,67.983 85.631 C 67.463 86.603,67.502 86.906,68.100 86.547 C 68.476 86.321,68.494 86.389,68.171 86.823 C 67.596 87.595,67.544 89.148,68.060 90.112 C 68.362 90.676,68.356 90.820,68.040 90.625 C 67.500 90.291,67.456 90.896,67.983 91.423 C 68.193 91.633,68.398 93.199,68.437 94.903 C 68.477 96.606,68.664 98.000,68.854 98.000 C 69.044 98.000,69.200 98.731,69.200 99.624 C 69.200 100.604,69.358 101.149,69.600 101.000 C 69.845 100.849,70.000 101.470,70.000 102.600 C 70.000 103.730,70.155 104.351,70.400 104.200 C 70.624 104.062,70.800 104.369,70.800 104.897 C 70.800 105.969,71.648 107.992,72.100 107.997 C 72.265 107.999,72.400 108.463,72.400 109.029 C 72.400 109.594,72.672 110.329,73.004 110.661 C 73.336 110.993,73.505 111.430,73.380 111.632 C 73.255 111.835,73.343 112.000,73.576 112.000 C 73.809 112.000,74.000 112.360,74.000 112.800 C 74.000 113.240,74.137 113.600,74.305 113.600 C 74.631 113.600,75.158 114.496,76.240 116.889 C 76.610 117.708,77.067 118.282,77.256 118.165 C 77.445 118.048,77.600 118.221,77.600 118.548 C 77.600 118.875,77.883 119.426,78.229 119.771 C 78.574 120.117,78.741 120.400,78.600 120.400 C 78.459 120.400,78.613 120.670,78.943 121.000 C 79.273 121.330,79.725 121.600,79.948 121.600 C 80.171 121.600,80.481 121.808,80.638 122.062 C 80.832 122.375,80.743 122.415,80.362 122.185 C 79.919 121.918,79.927 122.010,80.400 122.622 C 81.464 123.996,81.899 124.367,82.152 124.114 C 82.289 123.978,82.400 124.167,82.400 124.533 C 82.400 124.900,82.597 125.155,82.837 125.100 C 83.078 125.045,83.483 125.346,83.737 125.768 C 84.369 126.817,86.787 129.200,87.220 129.200 C 87.414 129.200,87.765 129.560,88.000 130.000 C 88.235 130.440,88.627 130.800,88.871 130.800 C 89.114 130.800,89.829 131.340,90.460 132.000 C 91.091 132.660,91.703 133.200,91.820 133.200 C 91.937 133.200,92.413 133.554,92.877 133.986 C 93.341 134.419,93.855 134.690,94.019 134.588 C 94.182 134.487,94.429 134.699,94.568 135.060 C 94.706 135.420,94.932 135.602,95.070 135.463 C 95.208 135.325,95.577 135.525,95.890 135.906 C 96.246 136.340,96.351 136.375,96.170 136.000 C 96.011 135.670,96.474 135.991,97.201 136.713 C 97.927 137.435,98.717 137.961,98.957 137.881 C 99.197 137.801,99.634 137.977,99.929 138.272 C 100.223 138.566,100.630 138.705,100.832 138.580 C 101.035 138.455,101.200 138.633,101.200 138.976 C 101.200 139.369,101.558 139.600,102.167 139.600 C 102.698 139.600,103.193 139.764,103.267 139.963 C 103.340 140.163,103.760 140.388,104.200 140.463 C 104.640 140.539,105.238 140.825,105.529 141.100 C 105.819 141.375,106.317 141.600,106.634 141.600 C 106.951 141.600,107.568 141.780,108.005 142.000 C 108.442 142.220,109.158 142.580,109.595 142.800 C 110.032 143.020,110.852 143.200,111.418 143.200 C 112.002 143.200,112.340 143.373,112.200 143.600 C 112.056 143.833,112.455 144.000,113.153 144.000 C 113.813 144.000,114.464 144.180,114.600 144.400 C 114.736 144.620,115.287 144.800,115.824 144.800 C 116.361 144.800,116.800 144.980,116.800 145.200 C 116.800 145.420,117.329 145.600,117.976 145.600 C 118.623 145.600,119.242 145.744,119.351 145.920 C 119.460 146.096,120.321 146.286,121.264 146.342 C 122.207 146.397,123.074 146.572,123.190 146.730 C 123.305 146.888,124.030 147.075,124.800 147.146 C 125.570 147.216,126.260 147.437,126.333 147.637 C 126.407 147.837,127.431 148.000,128.610 148.000 C 129.788 148.000,130.869 148.189,131.012 148.419 C 131.186 148.701,131.481 148.669,131.912 148.319 C 132.393 147.930,132.478 147.925,132.253 148.300 C 132.023 148.682,132.664 148.800,134.976 148.800 C 136.822 148.800,138.000 148.964,138.000 149.220 C 138.000 149.501,140.575 149.618,145.795 149.574 C 150.200 149.537,153.495 149.354,153.372 149.154 C 153.251 148.959,153.478 148.779,153.876 148.754 C 155.773 148.633,158.000 147.488,158.000 146.633 C 158.000 146.161,159.402 144.800,159.889 144.800 C 160.171 144.800,160.400 144.340,160.400 143.776 C 160.400 143.196,160.573 142.860,160.800 143.000 C 161.026 143.140,161.200 142.812,161.200 142.247 C 161.200 141.697,161.380 141.136,161.600 141.000 C 161.821 140.863,162.000 139.063,162.000 136.976 C 162.000 134.725,161.838 133.200,161.600 133.200 C 161.380 133.200,161.200 132.750,161.200 132.200 C 161.200 131.650,161.020 131.200,160.800 131.200 C 160.580 131.200,160.400 130.919,160.400 130.576 C 160.400 130.233,160.220 130.064,160.000 130.200 C 159.780 130.336,159.598 130.122,159.596 129.724 C 159.594 129.326,159.137 128.640,158.580 128.200 C 158.024 127.760,157.261 127.109,156.884 126.753 C 156.032 125.948,153.356 125.056,152.808 125.395 C 152.584 125.534,152.400 125.457,152.400 125.224 C 152.400 124.944,150.297 124.800,146.200 124.800 C 142.333 124.800,140.000 124.649,140.000 124.400 C 140.000 124.169,138.733 124.000,137.000 124.000 C 135.350 124.000,134.000 123.854,134.000 123.675 C 134.000 123.496,133.145 123.306,132.100 123.253 C 131.055 123.200,130.140 122.987,130.067 122.779 C 129.993 122.570,129.239 122.400,128.390 122.400 C 127.542 122.400,126.736 122.220,126.600 122.000 C 126.464 121.780,125.733 121.600,124.976 121.600 C 124.219 121.600,123.600 121.401,123.600 121.157 C 123.600 120.914,123.335 120.816,123.012 120.940 C 122.688 121.064,122.161 120.904,121.840 120.583 C 121.519 120.262,120.794 120.000,120.229 120.000 C 119.663 120.000,119.200 119.820,119.200 119.600 C 119.200 119.380,118.840 119.200,118.400 119.200 C 117.960 119.200,117.600 119.020,117.600 118.800 C 117.600 118.580,117.233 118.400,116.784 118.400 C 115.866 118.400,112.988 117.027,112.604 116.406 C 112.466 116.183,111.993 116.000,111.553 116.000 C 111.113 116.000,110.864 115.820,111.000 115.600 C 111.136 115.380,110.943 115.200,110.571 115.200 C 110.198 115.200,109.573 114.830,109.181 114.378 C 108.788 113.925,108.105 113.528,107.661 113.495 C 107.218 113.461,106.935 113.305,107.032 113.148 C 107.130 112.990,106.622 112.449,105.905 111.945 C 105.187 111.441,104.540 110.887,104.467 110.714 C 104.393 110.542,104.161 110.400,103.951 110.400 C 103.348 110.400,100.400 107.232,100.400 106.584 C 100.400 106.263,100.113 106.000,99.763 106.000 C 99.412 106.000,99.031 105.640,98.916 105.200 C 98.801 104.760,98.548 104.400,98.353 104.400 C 98.159 104.400,98.000 104.080,98.000 103.688 C 98.000 103.297,97.640 102.717,97.200 102.400 C 96.760 102.083,96.400 101.503,96.400 101.112 C 96.400 100.720,96.220 100.400,96.000 100.400 C 95.780 100.400,95.600 100.040,95.600 99.600 C 95.600 99.160,95.420 98.800,95.200 98.800 C 94.980 98.800,94.800 98.260,94.800 97.600 C 94.800 96.940,94.620 96.400,94.400 96.400 C 94.180 96.400,94.000 95.860,94.000 95.200 C 94.000 94.540,93.820 94.000,93.600 94.000 C 93.380 94.000,93.200 93.021,93.200 91.824 C 93.200 90.627,93.020 89.536,92.800 89.400 C 92.580 89.264,92.400 88.454,92.400 87.600 C 92.400 86.746,92.580 85.936,92.800 85.800 C 93.020 85.664,93.200 84.563,93.200 83.353 C 93.200 81.988,93.352 81.247,93.600 81.400 C 93.833 81.544,94.000 81.137,94.000 80.424 C 94.000 79.751,94.180 79.200,94.400 79.200 C 94.620 79.200,94.800 78.739,94.800 78.176 C 94.800 77.596,94.973 77.260,95.200 77.400 C 95.424 77.539,95.600 77.225,95.600 76.686 C 95.600 76.157,95.956 75.402,96.391 75.009 C 96.825 74.615,97.094 74.152,96.987 73.979 C 96.880 73.806,97.244 73.309,97.796 72.874 C 98.348 72.440,98.800 71.856,98.800 71.576 C 98.800 71.296,98.902 71.168,99.026 71.292 C 99.150 71.416,99.967 70.816,100.842 69.959 C 101.717 69.102,102.695 68.400,103.016 68.400 C 103.337 68.400,103.600 68.119,103.600 67.776 C 103.600 67.433,103.780 67.264,104.000 67.400 C 104.220 67.536,104.400 67.457,104.400 67.224 C 104.400 66.991,104.741 66.800,105.157 66.800 C 105.574 66.800,106.022 66.519,106.154 66.175 C 106.286 65.831,106.557 65.650,106.755 65.772 C 106.954 65.895,107.227 65.708,107.361 65.356 C 107.496 65.005,107.864 64.816,108.178 64.936 C 108.491 65.056,108.812 64.963,108.891 64.728 C 108.969 64.492,109.521 64.300,110.117 64.300 C 110.713 64.300,111.200 64.142,111.200 63.950 C 111.200 63.758,111.740 63.600,112.400 63.600 C 113.060 63.600,113.600 63.420,113.600 63.200 C 113.600 62.980,114.374 62.800,115.320 62.800 C 116.266 62.800,117.221 62.619,117.441 62.399 C 117.930 61.910,131.223 61.812,131.564 62.294 C 131.694 62.478,132.520 62.685,133.400 62.754 C 134.280 62.822,135.090 62.995,135.200 63.139 C 135.402 63.402,135.561 63.431,137.424 63.540 C 137.993 63.573,138.338 63.778,138.200 64.000 C 138.064 64.220,138.313 64.400,138.753 64.400 C 139.193 64.400,139.664 64.580,139.800 64.800 C 139.936 65.020,140.453 65.200,140.948 65.200 C 141.444 65.200,142.205 65.515,142.640 65.900 C 143.075 66.285,143.693 66.659,144.012 66.732 C 144.331 66.805,144.726 67.075,144.890 67.332 C 145.054 67.589,145.196 67.620,145.206 67.400 C 145.216 67.180,145.408 67.315,145.632 67.700 C 145.856 68.085,146.273 68.400,146.558 68.400 C 146.843 68.400,147.395 68.753,147.786 69.184 C 148.176 69.615,148.609 69.954,148.748 69.937 C 149.534 69.839,150.016 70.051,149.800 70.400 C 149.664 70.620,149.844 70.800,150.200 70.800 C 150.556 70.800,150.736 70.980,150.600 71.200 C 150.464 71.420,150.529 71.600,150.744 71.600 C 151.291 71.600,158.800 79.018,158.800 79.558 C 158.800 79.801,159.081 80.000,159.424 80.000 C 159.767 80.000,159.962 80.137,159.859 80.305 C 159.755 80.473,159.937 81.058,160.263 81.605 C 160.589 82.152,160.755 82.276,160.632 81.879 C 160.502 81.459,160.574 81.260,160.805 81.403 C 161.022 81.537,161.200 81.997,161.200 82.424 C 161.200 82.851,161.380 83.200,161.600 83.200 C 161.820 83.200,162.000 83.449,162.000 83.753 C 162.000 84.056,162.585 84.893,163.300 85.612 C 164.015 86.331,164.330 86.789,164.000 86.630 C 163.670 86.471,163.727 86.608,164.127 86.934 C 164.526 87.260,164.857 87.629,164.862 87.754 C 164.890 88.525,165.347 89.600,165.647 89.600 C 165.841 89.600,166.000 89.881,166.000 90.224 C 166.000 90.567,166.180 90.736,166.400 90.600 C 166.789 90.360,166.962 90.883,166.830 91.900 C 166.794 92.175,166.953 92.400,167.182 92.400 C 167.412 92.400,167.600 92.760,167.600 93.200 C 167.600 93.640,167.780 94.000,168.000 94.000 C 168.220 94.000,168.400 94.360,168.400 94.800 C 168.400 95.240,168.580 95.600,168.800 95.600 C 169.020 95.600,169.200 95.960,169.200 96.400 C 169.200 96.840,169.335 97.201,169.500 97.203 C 169.859 97.207,170.800 99.144,170.800 99.880 C 170.800 100.166,170.980 100.400,171.200 100.400 C 171.420 100.400,171.600 100.839,171.600 101.376 C 171.600 101.913,171.780 102.464,172.000 102.600 C 172.220 102.736,172.400 103.182,172.400 103.590 C 172.400 103.999,172.588 104.396,172.818 104.473 C 173.048 104.549,173.266 105.014,173.303 105.506 C 173.340 105.998,173.512 106.400,173.685 106.400 C 173.858 106.400,174.000 106.749,174.000 107.176 C 174.000 107.603,174.159 108.051,174.354 108.171 C 174.548 108.292,174.829 109.198,174.977 110.186 C 175.125 111.173,175.416 112.086,175.623 112.214 C 175.830 112.342,176.000 112.977,176.000 113.624 C 176.000 114.349,176.209 114.800,176.544 114.800 C 176.921 114.800,177.054 115.232,176.977 116.203 C 176.916 116.975,176.986 117.533,177.133 117.442 C 177.280 117.352,177.447 117.920,177.505 118.704 C 177.563 119.488,177.824 120.387,178.085 120.702 C 178.346 121.017,178.556 121.753,178.551 122.337 C 178.546 122.922,178.718 123.518,178.933 123.662 C 179.148 123.806,179.308 124.478,179.289 125.155 C 179.270 125.832,179.422 126.490,179.627 126.617 C 179.832 126.743,180.000 127.377,180.000 128.024 C 180.000 128.695,180.215 129.203,180.500 129.206 C 180.866 129.211,180.854 129.305,180.455 129.558 C 180.006 129.842,180.003 129.934,180.441 130.080 C 180.784 130.195,180.937 130.792,180.872 131.762 C 180.807 132.719,180.921 133.172,181.185 133.009 C 181.571 132.771,181.807 134.668,181.621 136.500 C 181.582 136.885,181.741 137.200,181.975 137.200 C 182.212 137.200,182.400 137.996,182.400 139.000 C 182.400 139.990,182.580 140.800,182.800 140.800 C 183.022 140.800,183.200 141.856,183.200 143.167 C 183.200 144.468,183.362 145.593,183.560 145.667 C 183.758 145.740,183.977 146.790,184.047 148.000 C 184.117 149.210,184.303 150.385,184.462 150.611 C 184.620 150.836,184.803 152.231,184.869 153.711 C 184.935 155.190,185.126 156.400,185.294 156.400 C 185.462 156.400,185.600 158.005,185.600 159.967 C 185.600 161.928,185.768 163.593,185.973 163.667 C 186.179 163.740,186.392 165.600,186.447 167.800 C 186.502 170.000,186.687 171.896,186.858 172.014 C 187.029 172.132,187.193 174.967,187.221 178.315 C 187.259 182.813,187.394 184.330,187.736 184.124 C 188.074 183.922,188.085 184.003,187.779 184.423 C 187.198 185.220,187.041 187.600,187.570 187.600 C 187.806 187.600,188.000 188.284,188.000 189.120 C 188.000 189.956,188.216 190.856,188.480 191.120 C 188.853 191.493,188.836 191.600,188.400 191.600 C 187.964 191.600,187.947 191.707,188.320 192.080 C 188.584 192.344,188.800 192.812,188.800 193.121 C 188.800 193.918,194.033 198.800,194.888 198.800 C 195.280 198.800,195.600 198.960,195.600 199.156 C 195.600 199.351,197.580 199.539,200.000 199.572 C 202.818 199.610,204.400 199.482,204.400 199.216 C 204.400 198.987,204.755 198.800,205.188 198.800 C 206.234 198.800,211.200 193.886,211.200 192.850 C 211.200 192.408,211.386 191.932,211.614 191.791 C 212.142 191.465,212.095 170.000,211.566 170.000 C 211.365 170.000,211.200 168.009,211.200 165.576 C 211.200 162.729,211.057 161.241,210.800 161.400 C 210.548 161.555,210.375 160.488,210.332 158.524 C 210.239 154.304,210.219 154.086,209.888 153.755 C 209.730 153.596,209.600 152.252,209.600 150.767 C 209.600 149.282,209.434 148.007,209.230 147.933 C 209.027 147.860,208.765 146.630,208.649 145.200 C 208.265 140.492,207.905 138.000,207.610 138.000 C 207.451 138.000,207.392 137.278,207.480 136.397 C 207.580 135.401,207.419 134.477,207.055 133.958 C 206.708 133.462,206.539 132.564,206.640 131.750 C 206.750 130.863,206.627 130.309,206.291 130.180 C 205.979 130.060,205.794 129.387,205.827 128.490 C 205.857 127.671,205.718 126.893,205.517 126.761 C 205.316 126.630,205.141 125.775,205.129 124.861 C 205.116 123.948,204.947 123.200,204.753 123.200 C 204.559 123.200,204.400 122.502,204.400 121.649 C 204.400 120.796,204.144 119.885,203.831 119.626 C 203.509 119.358,203.338 118.729,203.439 118.177 C 203.536 117.639,203.432 117.200,203.208 117.200 C 202.984 117.200,202.800 116.390,202.800 115.400 C 202.800 114.410,202.620 113.600,202.400 113.600 C 202.180 113.600,202.000 113.071,202.000 112.424 C 202.000 111.777,201.820 111.136,201.600 111.000 C 201.380 110.864,201.200 110.213,201.200 109.553 C 201.200 108.855,201.033 108.456,200.800 108.600 C 200.445 108.819,200.239 107.968,200.292 106.504 C 200.302 106.232,200.150 106.107,199.955 106.228 C 199.760 106.349,199.600 105.822,199.600 105.057 C 199.600 104.292,199.422 103.607,199.203 103.533 C 198.985 103.460,198.767 102.918,198.719 102.329 C 198.670 101.740,198.488 101.345,198.315 101.452 C 198.142 101.560,198.000 101.007,198.000 100.224 C 198.000 99.441,197.820 98.800,197.600 98.800 C 197.380 98.800,197.200 98.361,197.200 97.824 C 197.200 97.287,197.020 96.736,196.800 96.600 C 196.580 96.464,196.400 95.993,196.400 95.553 C 196.400 95.113,196.220 94.864,196.000 95.000 C 195.767 95.144,195.600 94.737,195.600 94.024 C 195.600 93.351,195.442 92.800,195.249 92.800 C 194.867 92.800,193.750 90.389,193.905 89.900 C 193.957 89.735,193.820 89.600,193.600 89.600 C 193.380 89.600,193.200 89.060,193.200 88.400 C 193.200 87.740,193.020 87.200,192.800 87.200 C 192.580 87.200,192.400 86.840,192.400 86.400 C 192.400 85.960,192.220 85.600,192.000 85.600 C 191.780 85.600,191.600 85.253,191.600 84.829 C 191.600 84.404,191.330 83.787,191.000 83.457 C 190.670 83.127,190.400 82.594,190.400 82.271 C 190.400 81.949,190.111 81.575,189.758 81.439 C 189.392 81.299,189.215 80.937,189.346 80.596 C 189.597 79.942,187.853 77.080,187.450 77.484 C 187.312 77.621,187.200 77.253,187.200 76.667 C 187.200 76.080,187.020 75.600,186.800 75.600 C 186.580 75.600,186.400 75.240,186.400 74.800 C 186.400 74.360,186.175 74.045,185.900 74.100 C 185.625 74.155,185.445 73.975,185.500 73.700 C 185.555 73.425,185.420 73.200,185.200 73.200 C 184.980 73.200,184.800 72.840,184.800 72.400 C 184.800 71.942,184.533 71.600,184.176 71.600 C 183.833 71.600,183.649 71.444,183.767 71.253 C 183.885 71.063,183.625 70.585,183.191 70.191 C 182.756 69.798,182.400 69.234,182.400 68.938 C 182.400 68.642,182.220 68.400,182.000 68.400 C 181.780 68.400,181.600 68.130,181.600 67.801 C 181.600 67.471,180.974 66.538,180.208 65.726 C 179.443 64.915,178.894 64.172,178.990 64.077 C 179.086 63.981,178.452 63.219,177.582 62.383 C 176.712 61.547,176.000 60.757,176.000 60.628 C 176.000 60.176,173.709 58.000,173.233 58.000 C 172.969 58.000,172.843 57.854,172.954 57.675 C 173.064 57.496,172.715 56.838,172.177 56.213 C 171.640 55.587,171.200 55.188,171.200 55.326 C 171.200 55.572,170.124 54.648,166.516 51.300 C 165.508 50.365,164.442 49.600,164.145 49.600 C 163.849 49.600,163.382 49.240,163.107 48.800 C 162.832 48.360,162.357 48.000,162.051 48.000 C 161.744 48.000,161.167 47.623,160.768 47.163 C 160.369 46.703,159.864 46.437,159.646 46.572 C 159.428 46.707,159.064 46.498,158.837 46.108 C 158.610 45.719,158.419 45.544,158.412 45.720 C 158.405 45.897,157.778 45.566,157.017 44.986 C 156.230 44.386,155.428 44.059,155.155 44.228 C 154.876 44.400,154.781 44.354,154.927 44.118 C 155.185 43.701,152.456 42.262,151.777 42.456 C 151.570 42.516,150.824 42.257,150.120 41.882 C 149.416 41.507,148.471 41.200,148.020 41.200 C 147.569 41.200,147.200 41.020,147.200 40.800 C 147.200 40.580,146.660 40.400,146.000 40.400 C 145.340 40.400,144.800 40.220,144.800 40.000 C 144.800 39.780,144.260 39.600,143.600 39.600 C 142.940 39.600,142.400 39.420,142.400 39.200 C 142.400 38.980,141.590 38.800,140.600 38.800 C 139.610 38.800,138.800 38.665,138.800 38.500 C 138.800 38.335,137.855 38.144,136.700 38.076 C 135.545 38.008,134.429 37.783,134.220 37.576 C 133.724 37.085,114.511 37.077,114.333 37.567 M338.006 74.700 C 338.003 75.195,338.180 75.600,338.400 75.600 C 338.901 75.600,338.901 75.176,338.400 74.400 C 338.086 73.915,338.011 73.972,338.006 74.700 M229.892 127.083 C 229.063 127.652,228.462 128.195,228.555 128.289 C 228.649 128.382,229.489 127.906,230.423 127.229 C 232.472 125.745,232.022 125.621,229.892 127.083 M225.314 137.400 C 225.317 138.500,225.395 138.903,225.487 138.295 C 225.579 137.686,225.577 136.786,225.482 136.295 C 225.387 135.803,225.311 136.300,225.314 137.400 M225.628 141.100 C 225.738 142.273,226.346 142.926,226.372 141.900 C 226.387 141.295,226.220 140.800,226.000 140.800 C 225.780 140.800,225.613 140.935,225.628 141.100 M229.200 146.656 C 229.200 146.991,230.497 147.971,230.961 147.987 C 231.160 147.994,230.907 147.640,230.400 147.200 C 229.417 146.347,229.200 146.249,229.200 146.656 " stroke="none" fill="#f4fcfc" fill-rule="evenodd"></path><path id="path6" d="" stroke="none" fill="#100c830" fill-rule="evenodd"></path><path id="path7" d="" stroke="none" fill="#100c830" fill-rule="evenodd"></path><path id="path8" d="" stroke="none" fill="#100c830" fill-rule="evenodd"></path></g></svg>