<svg id="svg" version="1.1" xmlns="http://www.w3.org/2000/svg" xmlns:xlink="http://www.w3.org/1999/xlink" width="400" height="400" viewBox="0, 0, 400,400"><g id="svgg"><path id="path0" d="M197.400 76.820 C 194.389 77.141,192.670 77.473,191.400 77.979 C 185.229 80.442,180.483 84.102,177.369 88.800 C 176.087 90.734,175.933 91.052,174.032 95.700 C 173.091 98.000,173.011 104.015,173.045 169.400 C 173.079 235.211,173.173 242.089,174.042 242.626 C 174.239 242.748,174.400 243.276,174.400 243.800 C 174.400 244.324,174.580 244.864,174.800 245.000 C 175.020 245.136,175.200 245.597,175.200 246.024 C 175.200 246.451,175.380 246.800,175.600 246.800 C 175.820 246.800,176.000 246.990,176.000 247.222 C 176.000 249.009,183.812 257.567,185.467 257.593 C 185.723 257.597,185.993 257.735,186.067 257.900 C 186.507 258.891,193.766 261.594,196.028 261.610 C 196.783 261.615,198.210 261.808,199.200 262.039 C 200.992 262.456,203.368 262.193,207.400 261.130 C 209.665 260.534,212.682 259.321,213.200 258.800 C 213.310 258.689,213.932 258.329,214.582 257.999 C 217.423 256.559,224.800 248.194,224.800 246.413 C 224.800 246.180,224.959 245.677,225.153 245.295 C 225.782 244.059,226.333 242.627,226.652 241.400 C 227.190 239.329,227.305 99.652,226.769 97.800 C 225.338 92.844,223.672 89.527,220.966 86.248 C 217.844 82.462,210.446 77.600,207.809 77.600 C 207.342 77.600,206.789 77.442,206.580 77.249 C 206.018 76.731,200.613 76.478,197.400 76.820 M199.828 290.354 C 199.669 290.612,198.392 290.800,196.800 290.800 C 195.286 290.800,193.936 290.980,193.800 291.200 C 193.664 291.420,193.111 291.600,192.571 291.600 C 192.031 291.600,191.277 291.760,190.895 291.956 C 190.513 292.152,189.300 292.737,188.200 293.256 C 187.100 293.775,186.140 294.335,186.067 294.500 C 185.993 294.665,185.748 294.800,185.522 294.800 C 183.135 294.800,174.400 305.809,174.400 308.817 C 174.400 309.222,174.239 309.652,174.042 309.774 C 172.782 310.553,172.782 324.647,174.042 325.426 C 174.239 325.548,174.400 325.978,174.400 326.383 C 174.400 327.877,177.952 333.810,180.278 336.200 C 182.147 338.121,184.960 340.397,185.467 340.399 C 185.723 340.399,185.993 340.535,186.067 340.700 C 186.534 341.750,193.802 344.399,196.228 344.402 C 197.093 344.403,198.508 344.601,199.373 344.841 C 200.946 345.278,203.298 345.011,207.400 343.930 C 209.540 343.367,212.710 342.093,213.200 341.600 C 213.310 341.489,213.932 341.129,214.582 340.799 C 217.423 339.359,224.800 330.994,224.800 329.213 C 224.800 328.980,224.959 328.477,225.153 328.095 C 226.709 325.036,226.942 323.673,226.942 317.600 C 226.942 311.182,226.834 310.619,224.765 306.200 C 222.431 301.217,217.683 295.980,213.642 293.933 C 212.629 293.420,211.740 292.865,211.667 292.700 C 211.593 292.535,211.199 292.400,210.790 292.400 C 210.382 292.400,209.949 292.241,209.829 292.046 C 209.708 291.851,209.023 291.575,208.305 291.431 C 200.899 289.948,200.139 289.852,199.828 290.354 " stroke="none" fill="#304357" fill-rule="evenodd"></path><path id="path1" d="M196.631 20.451 C 196.750 20.643,195.397 20.800,193.624 20.800 C 191.315 20.800,190.398 20.942,190.394 21.300 C 190.390 21.633,190.258 21.600,190.000 21.200 C 189.742 20.800,189.610 20.767,189.606 21.100 C 189.602 21.433,188.925 21.600,187.576 21.600 C 186.329 21.600,185.648 21.753,185.800 22.000 C 185.947 22.238,185.479 22.400,184.647 22.400 C 183.877 22.400,183.136 22.580,183.000 22.800 C 182.864 23.020,182.223 23.200,181.576 23.200 C 180.929 23.200,180.400 23.380,180.400 23.600 C 180.400 23.820,180.040 24.000,179.600 24.000 C 179.160 24.000,178.800 24.180,178.800 24.400 C 178.800 24.620,178.395 24.800,177.900 24.801 C 177.405 24.801,176.370 25.148,175.600 25.573 C 173.512 26.724,172.265 27.310,171.640 27.435 C 171.332 27.496,170.970 27.724,170.836 27.941 C 170.702 28.158,170.331 28.395,170.012 28.468 C 169.693 28.541,169.075 28.915,168.640 29.300 C 168.205 29.685,167.613 30.000,167.325 30.000 C 167.036 30.000,166.800 30.171,166.800 30.381 C 166.800 30.590,166.035 31.290,165.100 31.936 C 164.165 32.582,162.817 33.670,162.104 34.355 C 161.391 35.040,160.626 35.600,160.404 35.600 C 160.182 35.600,160.045 35.735,160.100 35.900 C 160.155 36.065,160.074 36.200,159.921 36.200 C 159.768 36.200,159.048 36.983,158.321 37.941 C 157.594 38.898,156.415 40.329,155.700 41.119 C 154.985 41.910,154.400 42.712,154.400 42.902 C 154.400 43.092,154.220 43.136,154.000 43.000 C 153.780 42.864,153.600 43.033,153.600 43.376 C 153.600 43.719,153.432 44.000,153.227 44.000 C 153.022 44.000,152.731 44.405,152.581 44.900 C 152.431 45.395,151.937 46.205,151.484 46.700 C 151.031 47.195,150.809 47.600,150.991 47.600 C 151.173 47.600,150.923 47.946,150.435 48.370 C 149.947 48.793,149.572 49.249,149.602 49.382 C 149.703 49.833,148.607 52.000,148.279 52.000 C 148.099 52.000,148.064 52.180,148.200 52.400 C 148.336 52.620,148.260 52.800,148.031 52.800 C 147.802 52.800,147.503 53.249,147.365 53.797 C 147.216 54.391,146.930 54.689,146.657 54.533 C 146.406 54.389,146.331 54.416,146.491 54.593 C 146.814 54.951,144.788 58.799,144.276 58.800 C 144.098 58.800,144.064 58.980,144.200 59.200 C 144.336 59.420,144.252 59.600,144.014 59.600 C 143.514 59.600,142.628 61.540,142.763 62.340 C 142.813 62.637,142.692 62.780,142.494 62.658 C 142.297 62.536,141.891 63.058,141.593 63.818 C 141.295 64.578,140.904 65.200,140.725 65.200 C 140.546 65.200,140.396 65.425,140.391 65.700 C 140.386 65.975,140.030 66.650,139.600 67.200 C 139.170 67.750,138.814 68.515,138.809 68.900 C 138.804 69.285,138.620 69.600,138.400 69.600 C 138.180 69.600,138.000 69.860,138.000 70.177 C 138.000 70.495,137.620 71.020,137.157 71.345 C 136.693 71.670,136.434 72.132,136.582 72.371 C 136.730 72.610,136.569 72.914,136.225 73.046 C 135.881 73.178,135.600 73.626,135.600 74.043 C 135.600 74.459,135.420 74.800,135.200 74.800 C 134.980 74.800,134.800 75.070,134.800 75.400 C 134.800 75.730,134.620 76.000,134.400 76.000 C 134.180 76.000,134.000 76.360,134.000 76.800 C 134.000 77.240,133.820 77.600,133.600 77.600 C 133.380 77.600,133.200 77.881,133.200 78.224 C 133.200 78.567,133.020 78.736,132.800 78.600 C 132.580 78.464,132.400 78.641,132.400 78.993 C 132.400 79.345,132.040 80.020,131.600 80.492 C 131.160 80.964,130.800 81.587,130.800 81.875 C 130.800 82.164,130.590 82.400,130.333 82.400 C 130.077 82.400,129.980 82.514,130.119 82.653 C 130.384 82.917,128.511 86.412,127.868 86.855 C 127.664 86.996,127.621 87.311,127.772 87.555 C 127.932 87.814,127.768 88.000,127.381 88.000 C 126.946 88.000,126.796 88.213,126.950 88.615 C 127.085 88.965,126.931 89.328,126.596 89.457 C 126.271 89.582,126.104 89.845,126.226 90.042 C 126.348 90.239,126.302 90.401,126.124 90.403 C 125.740 90.407,124.800 92.325,124.800 93.103 C 124.800 93.402,124.653 93.556,124.473 93.445 C 124.293 93.334,123.920 93.866,123.645 94.628 C 123.369 95.389,122.976 95.909,122.772 95.783 C 122.567 95.656,122.400 95.806,122.400 96.115 C 122.400 96.826,121.273 99.107,120.768 99.420 C 120.558 99.549,120.491 99.823,120.617 100.028 C 120.744 100.232,120.657 100.400,120.424 100.400 C 120.191 100.400,120.000 100.670,120.000 101.000 C 120.000 101.330,119.820 101.600,119.600 101.600 C 119.380 101.600,119.200 101.870,119.200 102.200 C 119.200 102.530,119.063 102.800,118.896 102.800 C 118.728 102.800,117.966 104.015,117.201 105.500 C 116.436 106.985,115.481 108.501,115.079 108.870 C 114.676 109.238,114.351 109.640,114.355 109.763 C 114.378 110.417,113.480 112.373,113.229 112.218 C 113.067 112.118,112.691 112.658,112.393 113.418 C 112.095 114.178,111.704 114.800,111.525 114.800 C 111.346 114.800,111.200 115.261,111.200 115.824 C 111.200 116.404,111.027 116.740,110.800 116.600 C 110.580 116.464,110.400 116.633,110.400 116.976 C 110.400 117.319,110.209 117.600,109.976 117.600 C 109.743 117.600,109.664 117.780,109.800 118.000 C 109.936 118.220,109.827 118.400,109.557 118.400 C 109.287 118.400,109.178 118.511,109.314 118.648 C 109.450 118.784,109.300 119.157,108.981 119.476 C 108.661 119.796,108.400 120.404,108.400 120.829 C 108.400 121.253,108.248 121.600,108.063 121.600 C 107.877 121.600,107.292 122.455,106.763 123.500 C 106.233 124.545,105.665 125.460,105.500 125.533 C 105.335 125.607,105.200 125.922,105.200 126.233 C 105.200 126.545,105.020 126.800,104.800 126.800 C 104.580 126.800,104.400 127.094,104.400 127.453 C 104.400 127.812,104.085 128.397,103.700 128.753 C 103.315 129.109,102.942 129.670,102.870 130.000 C 102.799 130.330,102.574 130.660,102.370 130.733 C 102.167 130.807,102.000 131.122,102.000 131.433 C 102.000 131.745,101.820 132.000,101.600 132.000 C 101.380 132.000,101.200 132.450,101.200 133.000 C 101.200 133.550,101.061 134.000,100.892 134.000 C 100.722 134.000,100.147 134.799,99.613 135.775 C 99.080 136.752,98.494 137.458,98.312 137.346 C 98.129 137.233,98.006 137.289,98.037 137.470 C 98.195 138.378,97.955 139.219,97.600 139.000 C 97.380 138.864,97.200 139.111,97.200 139.548 C 97.200 139.985,96.917 140.626,96.571 140.971 C 96.226 141.317,96.073 141.600,96.233 141.600 C 96.392 141.600,96.138 141.933,95.668 142.341 C 95.199 142.748,94.906 143.172,95.017 143.284 C 95.128 143.395,94.945 143.714,94.610 143.992 C 94.274 144.270,94.000 144.746,94.000 145.049 C 94.000 145.352,93.790 145.600,93.533 145.600 C 93.277 145.600,93.178 145.711,93.314 145.848 C 93.450 145.984,93.308 146.349,92.998 146.659 C 92.688 146.969,92.536 147.488,92.660 147.812 C 92.784 148.135,92.686 148.400,92.443 148.400 C 92.199 148.400,92.000 148.670,92.000 149.000 C 92.000 149.330,91.832 149.600,91.626 149.600 C 91.420 149.600,91.024 150.230,90.746 151.000 C 90.467 151.770,90.095 152.400,89.920 152.400 C 89.744 152.400,89.600 152.670,89.600 153.000 C 89.600 153.330,89.420 153.600,89.200 153.600 C 88.980 153.600,88.800 153.836,88.800 154.125 C 88.800 154.413,88.433 155.043,87.984 155.525 C 87.536 156.006,87.363 156.400,87.600 156.400 C 87.837 156.400,87.664 156.794,87.216 157.275 C 86.767 157.756,86.182 158.643,85.915 159.246 C 85.649 159.849,85.288 160.255,85.115 160.148 C 84.942 160.040,84.800 160.323,84.800 160.776 C 84.800 161.229,84.609 161.600,84.376 161.600 C 84.143 161.600,84.055 161.765,84.180 161.968 C 84.305 162.170,84.136 162.607,83.804 162.939 C 83.472 163.271,83.200 163.736,83.200 163.971 C 83.200 164.207,83.020 164.400,82.800 164.400 C 82.580 164.400,82.400 164.760,82.400 165.200 C 82.400 165.640,82.241 166.000,82.046 166.000 C 81.851 166.000,81.404 166.605,81.053 167.345 C 80.702 168.085,80.141 168.917,79.807 169.194 C 79.473 169.471,79.200 169.946,79.200 170.249 C 79.200 170.552,79.020 170.800,78.800 170.800 C 78.580 170.800,78.400 171.055,78.400 171.368 C 78.400 172.035,77.135 174.540,76.700 174.733 C 76.535 174.807,76.400 175.122,76.400 175.433 C 76.400 175.745,76.220 176.000,76.000 176.000 C 75.780 176.000,75.600 176.345,75.600 176.767 C 75.600 177.188,75.465 177.593,75.300 177.667 C 74.924 177.834,73.625 179.964,73.329 180.900 C 73.207 181.285,72.948 181.600,72.753 181.600 C 72.559 181.600,72.400 181.870,72.400 182.200 C 72.400 182.530,72.209 182.800,71.976 182.800 C 71.743 182.800,71.665 182.981,71.802 183.203 C 71.939 183.424,71.769 183.714,71.425 183.846 C 71.081 183.978,70.800 184.426,70.800 184.843 C 70.800 185.259,70.620 185.600,70.400 185.600 C 70.180 185.600,70.000 185.894,70.000 186.253 C 70.000 186.612,69.612 187.242,69.139 187.653 C 68.665 188.064,68.405 188.400,68.561 188.400 C 68.916 188.400,67.640 190.706,66.700 191.763 C 66.315 192.197,65.994 192.832,65.987 193.175 C 65.970 194.042,64.991 195.251,64.596 194.894 C 64.418 194.732,64.392 194.810,64.539 195.066 C 64.685 195.323,64.354 196.068,63.803 196.724 C 63.251 197.379,62.800 198.115,62.800 198.358 C 62.800 198.601,62.620 198.800,62.400 198.800 C 62.180 198.800,62.000 199.160,62.000 199.600 C 62.000 200.040,61.841 200.400,61.647 200.400 C 61.452 200.400,61.211 200.715,61.110 201.100 C 61.010 201.485,60.879 201.980,60.820 202.200 C 60.760 202.420,60.372 203.078,59.956 203.662 C 59.540 204.246,59.200 204.971,59.200 205.273 C 59.200 205.576,58.840 206.083,58.400 206.400 C 57.960 206.717,57.600 207.263,57.600 207.613 C 57.600 207.963,57.240 208.636,56.800 209.108 C 56.360 209.580,56.000 210.244,56.000 210.583 C 56.000 210.922,55.820 211.200,55.600 211.200 C 55.380 211.200,55.200 211.481,55.200 211.824 C 55.200 212.167,55.042 212.350,54.849 212.230 C 54.655 212.111,54.394 212.528,54.268 213.158 C 54.142 213.788,53.760 214.582,53.420 214.923 C 53.079 215.264,52.800 215.836,52.800 216.195 C 52.800 216.554,52.620 216.736,52.400 216.600 C 52.180 216.464,52.000 216.734,52.000 217.200 C 52.000 217.666,51.820 217.936,51.600 217.800 C 51.380 217.664,51.200 217.923,51.200 218.376 C 51.200 218.829,51.063 219.200,50.896 219.200 C 50.729 219.200,50.356 219.579,50.067 220.042 C 49.694 220.639,49.681 220.797,50.025 220.585 C 50.291 220.420,50.079 220.896,49.554 221.643 C 49.029 222.389,48.465 223.060,48.300 223.133 C 48.135 223.207,48.000 223.488,48.000 223.758 C 48.000 224.028,47.676 224.598,47.280 225.025 C 46.504 225.860,45.832 227.208,45.940 227.711 C 45.977 227.882,45.741 228.125,45.415 228.250 C 45.089 228.375,44.708 229.084,44.569 229.825 C 44.430 230.566,44.110 231.133,43.858 231.086 C 43.606 231.039,43.455 231.254,43.521 231.563 C 43.588 231.873,43.408 232.272,43.121 232.449 C 42.835 232.626,42.594 232.912,42.586 233.085 C 42.578 233.258,42.347 233.805,42.072 234.300 C 41.797 234.795,41.675 235.200,41.802 235.200 C 41.928 235.200,41.664 235.594,41.216 236.075 C 40.767 236.557,40.400 237.121,40.400 237.329 C 40.400 237.536,40.023 238.033,39.563 238.432 C 39.103 238.831,38.844 239.348,38.989 239.582 C 39.133 239.815,38.969 240.114,38.625 240.246 C 38.281 240.378,38.000 240.792,38.000 241.167 C 38.000 241.542,37.633 242.243,37.184 242.725 C 36.736 243.206,36.511 243.605,36.684 243.612 C 36.858 243.619,36.685 243.808,36.300 244.032 C 35.915 244.256,35.600 244.881,35.600 245.420 C 35.600 245.959,35.420 246.400,35.200 246.400 C 34.980 246.400,34.800 246.627,34.800 246.904 C 34.800 247.181,34.440 247.632,34.000 247.907 C 33.560 248.182,33.200 248.675,33.200 249.003 C 33.200 249.332,33.020 249.600,32.800 249.600 C 32.580 249.600,32.400 249.968,32.400 250.417 C 32.400 250.866,32.040 251.620,31.600 252.092 C 31.160 252.564,30.800 253.198,30.800 253.499 C 30.800 253.801,30.657 253.959,30.483 253.851 C 30.309 253.744,30.137 254.045,30.101 254.522 C 30.065 254.998,29.848 255.451,29.618 255.527 C 29.388 255.604,29.200 255.922,29.200 256.233 C 29.200 256.545,29.041 256.800,28.847 256.800 C 28.503 256.800,27.870 258.296,27.957 258.900 C 27.981 259.065,27.736 259.200,27.413 259.200 C 27.056 259.200,26.915 259.435,27.054 259.797 C 27.185 260.137,27.008 260.499,26.644 260.639 C 26.292 260.773,26.104 261.045,26.226 261.242 C 26.348 261.439,26.300 261.600,26.120 261.600 C 25.940 261.600,25.556 261.979,25.267 262.442 C 24.857 263.098,24.853 263.215,25.249 262.970 C 25.529 262.797,25.362 263.211,24.879 263.890 C 24.395 264.568,24.000 265.281,24.000 265.473 C 24.000 265.666,23.640 266.083,23.200 266.400 C 22.760 266.717,22.400 267.297,22.400 267.688 C 22.400 268.080,22.220 268.400,22.000 268.400 C 21.780 268.400,21.600 268.678,21.600 269.017 C 21.600 269.356,21.240 270.020,20.800 270.492 C 20.360 270.964,19.997 271.812,19.994 272.375 C 19.989 273.184,19.906 273.273,19.600 272.800 C 19.286 272.315,19.211 272.372,19.206 273.100 C 19.203 273.595,19.020 274.000,18.800 274.000 C 18.580 274.000,18.400 274.360,18.400 274.800 C 18.400 275.240,18.220 275.600,18.000 275.600 C 17.780 275.600,17.600 275.881,17.600 276.224 C 17.600 276.567,17.420 276.736,17.200 276.600 C 16.980 276.464,16.800 276.723,16.800 277.176 C 16.800 277.629,16.620 278.000,16.400 278.000 C 16.180 278.000,16.000 278.268,16.000 278.595 C 16.000 278.923,15.729 279.508,15.397 279.895 C 15.065 280.283,14.840 280.703,14.897 280.829 C 14.954 280.954,14.730 281.353,14.400 281.715 C 13.150 283.084,12.606 283.781,12.778 283.790 C 13.101 283.808,11.811 286.400,11.479 286.400 C 11.299 286.400,11.264 286.580,11.400 286.800 C 11.536 287.020,11.457 287.200,11.224 287.200 C 10.991 287.200,10.800 287.476,10.800 287.813 C 10.800 288.149,10.520 288.533,10.177 288.664 C 9.834 288.796,9.649 289.150,9.764 289.452 C 9.880 289.753,9.798 290.000,9.582 290.000 C 9.366 290.000,8.741 290.980,8.193 292.177 C 7.646 293.375,7.034 294.456,6.833 294.579 C 6.345 294.881,4.400 298.816,4.400 299.502 C 4.400 299.802,4.258 299.960,4.085 299.852 C 3.912 299.745,3.730 300.140,3.681 300.729 C 3.633 301.318,3.415 301.860,3.197 301.933 C 2.978 302.007,2.800 302.512,2.800 303.057 C 2.800 303.602,2.657 303.959,2.483 303.851 C 2.309 303.744,2.123 304.225,2.069 304.921 C 2.016 305.617,1.799 306.361,1.587 306.573 C 1.374 306.786,1.200 307.518,1.200 308.200 C 1.200 308.882,0.975 309.665,0.700 309.940 C -0.132 310.772,-0.003 334.496,0.845 336.600 C 1.199 337.480,1.409 338.425,1.311 338.700 C 1.213 338.975,1.328 339.200,1.567 339.200 C 1.805 339.200,2.000 339.740,2.000 340.400 C 2.000 341.060,2.180 341.600,2.400 341.600 C 2.620 341.600,2.800 342.140,2.800 342.800 C 2.800 343.460,2.980 344.000,3.200 344.000 C 3.420 344.000,3.600 344.439,3.600 344.976 C 3.600 345.513,3.780 346.064,4.000 346.200 C 4.220 346.336,4.400 346.807,4.400 347.247 C 4.400 347.687,4.580 347.936,4.800 347.800 C 5.027 347.660,5.200 347.996,5.200 348.576 C 5.200 349.139,5.359 349.600,5.554 349.600 C 5.749 349.600,6.202 350.185,6.561 350.900 C 8.345 354.457,10.095 357.139,11.705 358.783 C 13.459 360.575,13.600 360.787,13.600 361.624 C 13.600 361.857,13.780 361.936,14.000 361.800 C 14.220 361.664,14.401 361.788,14.401 362.076 C 14.402 362.364,14.933 362.956,15.582 363.390 C 16.231 363.825,16.981 364.590,17.248 365.090 C 17.516 365.591,17.895 366.000,18.091 366.000 C 18.287 366.000,18.319 365.792,18.162 365.538 C 17.984 365.250,18.052 365.185,18.345 365.366 C 18.602 365.525,18.722 365.803,18.610 365.984 C 18.498 366.165,18.874 366.619,19.446 366.993 C 20.017 367.368,21.032 368.197,21.702 368.837 C 22.371 369.477,23.162 370.000,23.459 370.000 C 23.757 370.000,24.000 370.199,24.000 370.443 C 24.000 370.686,24.270 370.782,24.600 370.655 C 24.952 370.520,25.200 370.650,25.200 370.970 C 25.200 371.477,26.271 372.191,26.862 372.076 C 27.006 372.048,27.343 372.290,27.611 372.613 C 27.879 372.936,28.346 373.200,28.649 373.200 C 28.952 373.200,29.200 373.391,29.200 373.624 C 29.200 373.857,29.380 373.936,29.600 373.800 C 29.820 373.664,30.000 373.754,30.000 374.000 C 30.000 374.246,30.160 374.349,30.355 374.228 C 30.550 374.107,30.932 374.277,31.204 374.604 C 31.476 374.932,32.227 375.200,32.873 375.200 C 33.554 375.200,33.943 375.368,33.800 375.600 C 33.660 375.827,33.996 376.000,34.576 376.000 C 35.139 376.000,35.600 376.180,35.600 376.400 C 35.600 376.620,36.039 376.800,36.576 376.800 C 37.113 376.800,37.664 376.980,37.800 377.200 C 37.936 377.420,38.577 377.600,39.224 377.600 C 39.871 377.600,40.400 377.760,40.400 377.956 C 40.400 378.152,40.985 378.415,41.700 378.540 C 42.415 378.664,43.990 378.986,45.200 379.253 C 46.883 379.626,65.314 379.747,123.600 379.770 L 199.800 379.800 199.904 362.700 L 200.009 345.600 197.428 345.600 C 196.009 345.600,194.736 345.420,194.600 345.200 C 194.464 344.980,193.821 344.800,193.171 344.800 C 192.521 344.800,191.677 344.641,191.295 344.447 C 190.622 344.104,190.050 343.859,187.300 342.736 C 186.585 342.444,186.000 342.069,186.000 341.902 C 186.000 341.736,185.730 341.600,185.400 341.600 C 185.070 341.600,184.800 341.420,184.800 341.200 C 184.800 340.980,184.575 340.799,184.300 340.798 C 182.869 340.793,175.600 332.792,175.600 331.222 C 175.600 330.990,175.420 330.800,175.200 330.800 C 174.980 330.800,174.800 330.440,174.800 330.000 C 174.800 329.560,174.620 329.200,174.400 329.200 C 174.180 329.200,174.000 328.851,174.000 328.424 C 174.000 327.997,173.820 327.536,173.600 327.400 C 173.380 327.264,173.200 326.634,173.200 326.000 C 173.200 325.366,173.043 324.750,172.850 324.631 C 171.688 323.913,171.688 311.287,172.850 310.569 C 173.043 310.450,173.200 309.834,173.200 309.200 C 173.200 308.566,173.380 307.936,173.600 307.800 C 173.820 307.664,174.000 307.203,174.000 306.776 C 174.000 306.349,174.180 306.000,174.400 306.000 C 174.620 306.000,174.800 305.640,174.800 305.200 C 174.800 304.760,174.980 304.400,175.200 304.400 C 175.420 304.400,175.600 304.207,175.600 303.972 C 175.600 302.518,182.940 294.400,184.254 294.400 C 184.555 294.400,184.800 294.241,184.800 294.047 C 184.800 293.852,185.115 293.593,185.500 293.471 C 185.885 293.349,186.650 292.989,187.200 292.672 C 188.113 292.144,189.225 291.642,191.400 290.774 C 192.550 290.315,194.632 289.959,197.500 289.731 L 200.000 289.532 200.000 276.199 L 200.000 262.866 197.300 262.663 C 193.785 262.398,191.647 261.999,191.373 261.556 C 191.252 261.360,190.829 261.200,190.433 261.200 C 189.538 261.200,184.800 258.789,184.800 258.333 C 184.800 258.150,184.549 258.000,184.242 258.000 C 183.106 258.000,176.963 251.520,175.968 249.272 C 175.658 248.572,175.269 248.000,175.102 248.000 C 174.936 248.000,174.800 247.640,174.800 247.200 C 174.800 246.760,174.620 246.400,174.400 246.400 C 174.180 246.400,174.000 246.051,174.000 245.624 C 174.000 245.197,173.820 244.736,173.600 244.600 C 173.380 244.464,173.200 243.859,173.200 243.256 C 173.200 242.653,173.037 241.989,172.839 241.780 C 171.981 240.878,171.891 233.942,171.895 169.400 C 171.898 104.656,171.991 97.505,172.837 96.620 C 173.037 96.411,173.200 95.914,173.200 95.515 C 173.200 95.116,173.380 94.432,173.600 93.995 C 173.820 93.558,174.180 92.842,174.400 92.405 C 174.620 91.968,174.800 91.338,174.800 91.005 C 174.800 90.672,174.980 90.400,175.200 90.400 C 175.420 90.400,175.600 90.207,175.600 89.972 C 175.600 87.659,183.171 80.504,187.800 78.441 C 188.460 78.147,189.313 77.748,189.695 77.553 C 190.077 77.359,190.741 77.200,191.171 77.200 C 191.601 77.200,192.064 77.020,192.200 76.800 C 192.336 76.580,193.146 76.400,194.000 76.400 C 194.854 76.400,195.664 76.220,195.800 76.000 C 195.936 75.780,196.939 75.600,198.029 75.600 L 200.010 75.600 199.995 47.815 L 199.979 20.030 198.197 20.065 C 197.217 20.085,196.512 20.258,196.631 20.451 M305.673 145.000 C 305.923 145.550,306.284 146.000,306.473 146.000 C 306.663 146.000,306.524 145.550,306.163 145.000 C 305.803 144.450,305.443 144.000,305.363 144.000 C 305.283 144.000,305.422 144.450,305.673 145.000 " stroke="none" fill="#f3c31c" fill-rule="evenodd"></path><path id="path2" d="M200.400 48.200 L 200.400 75.600 202.176 75.600 C 203.153 75.600,204.064 75.780,204.200 76.000 C 204.336 76.220,205.146 76.400,206.000 76.400 C 206.854 76.400,207.664 76.580,207.800 76.800 C 207.936 77.020,208.399 77.200,208.829 77.200 C 209.259 77.200,209.923 77.359,210.305 77.553 C 210.687 77.748,211.540 78.147,212.200 78.441 C 216.913 80.541,224.400 87.618,224.400 89.972 C 224.400 90.207,224.580 90.400,224.800 90.400 C 225.020 90.400,225.200 90.760,225.200 91.200 C 225.200 91.640,225.380 92.000,225.600 92.000 C 225.820 92.000,226.000 92.439,226.000 92.976 C 226.000 93.513,226.180 94.064,226.400 94.200 C 226.620 94.336,226.800 94.851,226.800 95.344 C 226.800 95.837,226.963 96.411,227.161 96.620 C 228.019 97.522,228.109 104.467,228.109 169.200 C 228.109 233.933,228.019 240.878,227.161 241.780 C 226.963 241.989,226.800 242.653,226.800 243.256 C 226.800 243.859,226.620 244.464,226.400 244.600 C 226.180 244.736,226.000 245.197,226.000 245.624 C 226.000 246.051,225.820 246.400,225.600 246.400 C 225.380 246.400,225.200 246.760,225.200 247.200 C 225.200 247.640,225.064 248.000,224.898 248.000 C 224.731 248.000,224.342 248.572,224.032 249.272 C 223.104 251.368,218.771 256.121,216.132 257.937 C 214.057 259.364,210.373 261.200,209.583 261.200 C 209.178 261.200,208.736 261.380,208.600 261.600 C 208.464 261.820,207.834 262.000,207.200 262.000 C 206.566 262.000,205.936 262.180,205.800 262.400 C 205.664 262.620,204.393 262.800,202.976 262.800 L 200.400 262.800 200.400 276.200 L 200.400 289.600 202.776 289.600 C 204.083 289.600,205.264 289.780,205.400 290.000 C 205.536 290.220,206.179 290.400,206.829 290.400 C 207.479 290.400,208.323 290.559,208.705 290.753 C 209.087 290.948,209.850 291.286,210.400 291.506 C 212.458 292.328,215.200 293.809,215.200 294.099 C 215.200 294.265,215.445 294.400,215.746 294.400 C 217.060 294.400,224.400 302.518,224.400 303.972 C 224.400 304.207,224.580 304.400,224.800 304.400 C 225.020 304.400,225.200 304.760,225.200 305.200 C 225.200 305.640,225.380 306.000,225.600 306.000 C 225.820 306.000,226.000 306.349,226.000 306.776 C 226.000 307.203,226.180 307.664,226.400 307.800 C 226.620 307.936,226.800 308.541,226.800 309.144 C 226.800 309.747,226.963 310.411,227.161 310.620 C 228.325 311.845,228.325 323.355,227.161 324.580 C 226.963 324.789,226.800 325.453,226.800 326.056 C 226.800 326.659,226.620 327.264,226.400 327.400 C 226.180 327.536,226.000 327.997,226.000 328.424 C 226.000 328.851,225.820 329.200,225.600 329.200 C 225.380 329.200,225.200 329.560,225.200 330.000 C 225.200 330.440,225.064 330.800,224.898 330.800 C 224.731 330.800,224.342 331.372,224.032 332.072 C 223.104 334.168,218.771 338.921,216.132 340.737 C 214.057 342.164,210.373 344.000,209.583 344.000 C 209.178 344.000,208.736 344.180,208.600 344.400 C 208.464 344.620,207.834 344.800,207.200 344.800 C 206.566 344.800,205.936 344.980,205.800 345.200 C 205.664 345.420,204.393 345.600,202.976 345.600 L 200.400 345.600 200.400 362.800 L 200.400 380.000 273.776 380.000 C 322.263 380.000,347.237 379.864,347.400 379.600 C 347.536 379.380,348.817 379.200,350.247 379.200 C 351.879 379.200,352.755 379.349,352.600 379.600 C 352.133 380.356,353.024 380.000,353.600 379.200 C 354.022 378.614,354.635 378.400,355.888 378.400 C 356.830 378.400,357.600 378.220,357.600 378.000 C 357.600 377.780,358.129 377.600,358.776 377.600 C 359.423 377.600,360.064 377.420,360.200 377.200 C 360.336 376.980,360.987 376.800,361.647 376.800 C 362.345 376.800,362.744 376.633,362.600 376.400 C 362.464 376.180,362.726 376.000,363.182 376.000 C 363.638 376.000,364.392 375.775,364.858 375.500 C 365.535 375.100,365.741 375.100,365.886 375.500 C 366.187 376.331,366.909 376.060,366.684 375.200 C 366.529 374.607,366.672 374.400,367.237 374.400 C 367.657 374.400,368.000 374.220,368.000 374.000 C 368.000 373.780,368.360 373.600,368.800 373.600 C 369.240 373.600,369.600 373.420,369.600 373.200 C 369.600 372.980,369.960 372.800,370.400 372.800 C 370.840 372.800,371.200 372.620,371.200 372.400 C 371.200 372.180,371.464 372.000,371.787 372.000 C 372.156 372.000,372.301 372.260,372.175 372.700 C 372.065 373.085,372.203 372.950,372.481 372.400 C 373.116 371.142,373.525 370.742,374.900 370.032 C 375.505 369.720,376.000 369.315,376.000 369.132 C 376.000 368.950,376.225 368.799,376.500 368.798 C 376.775 368.797,377.540 368.300,378.200 367.693 C 379.556 366.446,381.820 364.921,381.467 365.492 C 381.339 365.698,381.473 365.867,381.763 365.867 C 382.063 365.867,382.213 365.573,382.112 365.184 C 381.999 364.751,382.384 364.181,383.167 363.624 C 383.845 363.141,384.400 362.488,384.400 362.173 C 384.400 361.858,384.676 361.600,385.013 361.600 C 385.349 361.600,385.730 361.325,385.859 360.990 C 386.052 360.488,386.204 360.470,386.712 360.890 C 387.256 361.339,387.274 361.294,386.861 360.518 C 386.447 359.741,386.558 359.469,387.795 358.231 C 388.568 357.459,389.200 356.628,389.200 356.385 C 389.200 355.808,390.216 354.800,390.798 354.800 C 391.072 354.800,391.152 354.480,391.000 354.000 C 390.854 353.541,390.928 353.200,391.173 353.200 C 391.408 353.200,391.600 352.911,391.600 352.557 C 391.600 352.173,391.824 352.000,392.155 352.127 C 392.544 352.277,392.649 352.110,392.508 351.570 C 392.397 351.147,392.508 350.800,392.753 350.800 C 392.999 350.800,393.200 350.440,393.200 350.000 C 393.200 349.560,393.380 349.200,393.600 349.200 C 393.820 349.200,394.000 348.840,394.000 348.400 C 394.000 347.960,394.180 347.600,394.400 347.600 C 394.620 347.600,394.800 347.228,394.800 346.773 C 394.800 346.128,394.976 346.002,395.600 346.200 C 396.077 346.351,396.400 346.272,396.400 346.003 C 396.400 345.756,396.220 345.664,396.000 345.800 C 395.772 345.941,395.600 345.596,395.600 345.000 C 395.600 344.310,395.758 344.050,396.062 344.238 C 396.318 344.396,396.416 344.350,396.282 344.133 C 396.150 343.918,396.302 343.240,396.620 342.626 C 396.939 342.011,397.200 341.069,397.200 340.531 C 397.200 339.898,397.362 339.653,397.658 339.836 C 397.975 340.032,398.052 339.786,397.909 339.037 C 397.784 338.383,397.930 337.728,398.277 337.380 C 398.593 337.064,398.813 336.309,398.766 335.703 C 398.617 333.800,398.779 333.200,399.443 333.200 C 399.914 333.200,399.998 333.013,399.757 332.500 C 399.576 332.115,399.463 330.990,399.506 330.000 C 399.931 320.177,399.939 318.208,399.557 317.748 C 399.144 317.250,399.150 314.989,399.566 314.200 C 399.987 313.404,399.918 312.800,399.407 312.800 C 398.669 312.800,398.360 311.757,398.776 310.663 C 399.134 309.722,398.807 308.716,398.155 308.751 C 397.960 308.761,397.845 308.136,397.900 307.362 C 397.961 306.503,397.844 306.049,397.600 306.200 C 397.366 306.345,397.200 305.929,397.200 305.200 C 397.200 304.359,397.350 304.046,397.662 304.238 C 397.941 304.411,398.015 304.348,397.849 304.079 C 397.698 303.835,397.310 303.736,396.987 303.860 C 396.454 304.065,396.150 303.094,396.363 301.870 C 396.394 301.689,396.235 301.655,396.010 301.794 C 395.771 301.942,395.600 301.621,395.600 301.024 C 395.600 300.461,395.420 300.000,395.200 300.000 C 394.980 300.000,394.800 299.655,394.800 299.233 C 394.800 298.812,394.665 298.407,394.500 298.333 C 394.335 298.260,393.767 297.345,393.237 296.300 C 392.708 295.255,392.156 294.400,392.012 294.400 C 391.867 294.400,391.502 293.770,391.200 293.000 C 390.898 292.230,390.504 291.600,390.325 291.600 C 389.805 291.600,389.950 290.487,390.500 290.265 C 390.775 290.154,390.623 290.049,390.163 290.032 C 389.581 290.010,389.033 289.421,388.363 288.100 C 387.833 287.055,387.265 286.140,387.100 286.067 C 386.935 285.993,386.800 285.668,386.800 285.343 C 386.800 285.018,386.978 284.863,387.195 284.997 C 387.427 285.140,387.486 284.970,387.340 284.587 C 387.168 284.140,386.999 284.078,386.806 284.390 C 386.621 284.689,386.288 284.488,385.845 283.813 C 385.472 283.243,385.275 282.602,385.407 282.389 C 385.539 282.175,385.367 282.000,385.024 282.000 C 384.169 282.000,384.233 280.902,385.100 280.676 C 385.547 280.559,385.417 280.476,384.739 280.446 C 383.940 280.411,383.575 280.104,383.260 279.200 C 383.030 278.540,382.633 278.000,382.378 278.000 C 382.123 278.000,382.018 277.730,382.145 277.400 C 382.271 277.070,382.205 276.800,381.998 276.800 C 381.504 276.800,380.357 274.576,380.683 274.251 C 380.821 274.113,380.723 274.000,380.467 274.000 C 380.210 274.000,380.000 273.829,380.000 273.620 C 380.000 273.411,379.460 272.440,378.800 271.462 C 378.140 270.484,377.600 269.500,377.600 269.275 C 377.600 269.051,377.465 268.807,377.300 268.733 C 376.924 268.566,375.625 266.436,375.329 265.500 C 375.207 265.115,374.948 264.800,374.753 264.800 C 374.559 264.800,374.400 264.440,374.400 264.000 C 374.400 263.560,374.265 263.199,374.100 263.197 C 373.598 263.192,372.834 261.185,373.062 260.471 C 373.241 259.909,373.208 259.895,372.859 260.388 C 372.631 260.712,372.389 260.892,372.322 260.788 C 371.563 259.614,371.216 258.698,371.410 258.384 C 371.540 258.173,371.367 258.000,371.024 258.000 C 370.681 258.000,370.400 257.730,370.400 257.400 C 370.400 257.070,370.264 256.800,370.098 256.800 C 369.931 256.800,369.540 256.215,369.229 255.500 C 368.917 254.785,368.213 253.480,367.663 252.600 C 367.113 251.720,366.682 250.910,366.703 250.800 C 366.725 250.690,366.468 250.296,366.132 249.925 C 365.796 249.554,365.657 249.031,365.823 248.763 C 366.008 248.464,365.957 248.380,365.690 248.544 C 365.432 248.704,364.745 247.799,363.989 246.306 C 363.291 244.928,362.577 243.620,362.402 243.400 C 361.384 242.116,360.366 239.811,360.758 239.681 C 361.001 239.600,361.200 239.356,361.200 239.140 C 361.200 238.923,360.840 238.860,360.400 239.000 C 359.832 239.180,359.600 239.072,359.600 238.627 C 359.600 238.282,359.420 238.000,359.200 238.000 C 358.980 238.000,358.800 237.730,358.800 237.400 C 358.800 237.070,358.620 236.800,358.400 236.800 C 358.180 236.800,358.000 236.440,358.000 236.000 C 358.000 235.560,357.820 235.200,357.600 235.200 C 357.380 235.200,357.200 234.930,357.200 234.600 C 357.200 234.270,357.020 234.000,356.800 234.000 C 356.580 234.000,356.400 233.730,356.400 233.400 C 356.400 233.070,356.220 232.800,356.000 232.800 C 355.780 232.800,355.600 232.440,355.600 232.000 C 355.600 231.560,355.405 231.200,355.167 231.200 C 354.928 231.200,354.803 230.991,354.888 230.736 C 354.973 230.480,354.628 229.824,354.121 229.277 C 353.615 228.731,353.200 228.039,353.200 227.742 C 353.200 227.444,353.065 227.197,352.900 227.194 C 352.735 227.190,352.160 226.290,351.621 225.194 C 351.083 224.097,350.504 223.200,350.334 223.200 C 350.164 223.200,350.129 222.930,350.255 222.600 C 350.382 222.270,350.295 222.000,350.062 222.000 C 349.828 222.000,349.339 221.370,348.973 220.600 C 348.608 219.830,348.139 219.200,347.931 219.200 C 347.723 219.200,347.656 219.032,347.783 218.828 C 347.909 218.623,347.830 218.342,347.607 218.204 C 347.383 218.066,347.200 217.603,347.200 217.176 C 347.200 216.749,347.020 216.400,346.800 216.400 C 346.580 216.400,346.400 216.212,346.400 215.983 C 346.400 215.754,346.040 215.180,345.600 214.708 C 345.160 214.236,344.800 213.523,344.800 213.125 C 344.800 212.726,344.620 212.400,344.400 212.400 C 344.180 212.400,344.000 212.130,344.000 211.800 C 344.000 211.470,343.820 211.200,343.600 211.200 C 343.380 211.200,343.200 210.930,343.200 210.600 C 343.200 210.270,343.064 210.000,342.898 210.000 C 342.731 210.000,342.341 209.415,342.030 208.700 C 341.719 207.985,341.360 207.310,341.232 207.200 C 340.846 206.867,339.566 204.647,339.329 203.900 C 339.207 203.515,338.948 203.200,338.753 203.200 C 338.211 203.200,338.334 202.091,338.900 201.883 C 339.294 201.739,339.287 201.583,338.871 201.150 C 338.581 200.847,338.401 200.780,338.471 201.000 C 338.830 202.115,337.685 201.378,336.906 199.992 C 336.414 199.116,336.134 198.400,336.282 198.400 C 336.431 198.400,336.204 198.145,335.777 197.833 C 335.350 197.521,335.117 197.150,335.259 197.008 C 335.400 196.866,335.078 196.278,334.544 195.701 C 334.009 195.124,333.662 194.415,333.773 194.126 C 333.884 193.837,333.716 193.600,333.400 193.600 C 333.053 193.600,332.917 193.362,333.055 193.000 C 333.182 192.670,333.091 192.400,332.852 192.400 C 332.035 192.400,330.748 189.145,331.302 188.477 C 331.719 187.975,331.657 187.928,330.897 188.169 C 330.350 188.343,330.000 188.287,330.000 188.027 C 330.000 187.213,329.889 186.998,329.237 186.541 C 328.876 186.288,328.327 185.433,328.016 184.641 C 327.705 183.848,327.338 183.200,327.200 183.200 C 327.062 183.200,326.702 182.570,326.400 181.800 C 326.098 181.030,325.704 180.400,325.525 180.400 C 325.346 180.400,325.200 180.119,325.200 179.776 C 325.200 179.433,325.350 179.245,325.533 179.359 C 325.717 179.472,325.867 179.306,325.867 178.989 C 325.867 178.602,325.716 178.537,325.410 178.792 C 324.790 179.306,323.470 177.739,323.720 176.785 C 323.842 176.317,323.731 176.128,323.407 176.253 C 323.131 176.359,322.803 176.120,322.677 175.723 C 322.380 174.781,321.111 172.686,320.600 172.292 C 320.353 172.103,320.504 171.753,320.992 171.381 C 321.766 170.791,321.762 170.779,320.836 170.888 C 320.298 170.952,319.802 170.756,319.690 170.436 C 319.552 170.047,319.693 169.950,320.145 170.124 C 320.549 170.279,320.800 170.171,320.800 169.843 C 320.800 169.507,320.468 169.374,319.898 169.483 C 319.207 169.615,318.883 169.392,318.513 168.528 C 318.028 167.398,317.188 165.975,316.785 165.600 C 316.216 165.071,313.640 159.458,313.828 159.155 C 313.945 158.965,313.762 158.916,313.421 159.047 C 312.981 159.216,312.800 159.040,312.800 158.443 C 312.800 157.979,312.620 157.600,312.400 157.600 C 312.180 157.600,312.000 157.330,312.000 157.000 C 312.000 156.670,311.820 156.400,311.600 156.400 C 311.380 156.400,311.200 156.130,311.200 155.800 C 311.200 155.470,311.054 155.200,310.875 155.200 C 310.696 155.200,310.302 154.570,310.000 153.800 C 309.698 153.030,309.283 152.400,309.079 152.400 C 308.874 152.400,308.801 152.040,308.916 151.600 C 309.047 151.098,308.928 150.800,308.596 150.800 C 308.305 150.800,307.828 150.260,307.536 149.600 C 307.244 148.940,306.869 148.400,306.702 148.400 C 306.536 148.400,306.400 148.130,306.400 147.800 C 306.400 147.470,306.580 147.200,306.800 147.200 C 307.020 147.200,307.200 147.037,307.200 146.837 C 307.200 146.638,306.840 146.569,306.400 146.684 C 305.844 146.830,305.600 146.696,305.600 146.247 C 305.600 145.891,305.399 145.600,305.153 145.600 C 304.904 145.600,304.799 145.247,304.916 144.799 C 305.031 144.359,304.961 144.101,304.760 144.225 C 304.559 144.349,304.274 144.124,304.126 143.725 C 303.979 143.326,303.755 142.910,303.629 142.800 C 303.503 142.690,302.963 141.790,302.430 140.800 C 301.896 139.810,301.356 138.910,301.229 138.800 C 301.102 138.690,300.735 138.060,300.414 137.400 C 300.092 136.740,299.513 135.730,299.126 135.155 C 298.740 134.580,298.538 133.995,298.678 133.855 C 298.819 133.715,298.723 133.600,298.467 133.600 C 297.842 133.600,297.868 132.520,298.500 132.265 C 298.775 132.154,298.631 132.049,298.180 132.032 C 297.157 131.992,296.400 131.264,296.400 130.320 C 296.400 129.924,296.220 129.600,296.000 129.600 C 295.780 129.600,295.600 129.330,295.600 129.000 C 295.600 128.670,295.420 128.400,295.200 128.400 C 294.980 128.400,294.800 128.040,294.800 127.600 C 294.800 127.160,294.620 126.800,294.400 126.800 C 294.180 126.800,294.000 126.530,294.000 126.200 C 294.000 125.870,293.865 125.599,293.700 125.597 C 293.335 125.593,292.400 123.651,292.400 122.897 C 292.400 122.598,292.220 122.464,292.000 122.600 C 291.780 122.736,291.600 122.567,291.600 122.224 C 291.600 121.881,291.454 121.600,291.275 121.600 C 291.096 121.600,290.702 120.970,290.400 120.200 C 290.098 119.430,289.704 118.800,289.525 118.800 C 289.346 118.800,289.200 118.530,289.200 118.200 C 289.200 117.870,289.054 117.600,288.875 117.600 C 288.696 117.600,288.302 116.970,288.000 116.200 C 287.698 115.430,287.285 114.800,287.083 114.800 C 286.880 114.800,286.812 114.545,286.932 114.233 C 287.052 113.921,286.872 113.560,286.533 113.430 C 286.176 113.293,286.017 112.934,286.154 112.576 C 286.284 112.236,286.226 112.060,286.024 112.185 C 285.823 112.310,285.543 112.049,285.402 111.606 C 285.261 111.163,284.966 110.800,284.746 110.800 C 284.526 110.800,284.460 110.440,284.600 110.000 C 284.784 109.421,284.672 109.200,284.194 109.200 C 283.830 109.200,283.603 108.991,283.688 108.736 C 283.773 108.480,283.432 107.828,282.929 107.285 C 282.426 106.743,282.103 106.157,282.210 105.984 C 282.317 105.810,282.237 105.608,282.032 105.534 C 281.828 105.460,281.602 105.137,281.530 104.816 C 281.459 104.494,281.085 103.875,280.700 103.440 C 280.315 103.005,280.000 102.413,280.000 102.125 C 280.000 101.836,279.820 101.600,279.600 101.600 C 279.380 101.600,279.200 101.240,279.200 100.800 C 279.200 100.360,279.020 100.000,278.800 100.000 C 278.580 100.000,278.400 99.730,278.400 99.400 C 278.400 99.070,278.220 98.800,278.000 98.800 C 277.780 98.800,277.600 98.530,277.600 98.200 C 277.600 97.870,277.420 97.600,277.200 97.600 C 276.980 97.600,276.800 97.240,276.800 96.800 C 276.800 96.360,276.620 96.000,276.400 96.000 C 276.180 96.000,276.000 95.758,276.000 95.462 C 276.000 95.166,275.626 94.585,275.168 94.171 C 274.554 93.616,274.390 93.102,274.541 92.209 C 274.654 91.544,274.653 91.225,274.540 91.500 C 274.252 92.196,273.464 92.131,273.732 91.433 C 273.852 91.121,273.678 90.762,273.347 90.635 C 272.939 90.479,272.827 90.113,272.999 89.502 C 273.199 88.791,273.162 88.727,272.826 89.200 C 272.466 89.707,272.362 89.661,272.153 88.900 C 272.018 88.405,271.781 88.000,271.628 88.000 C 271.475 88.000,271.102 87.370,270.800 86.600 C 270.498 85.830,270.083 85.200,269.879 85.200 C 269.674 85.200,269.597 84.853,269.708 84.430 C 269.858 83.856,269.751 83.721,269.285 83.899 C 268.835 84.072,268.729 83.962,268.905 83.503 C 269.049 83.128,268.903 82.772,268.549 82.636 C 268.219 82.509,268.063 82.221,268.202 81.996 C 268.341 81.771,268.646 81.705,268.880 81.849 C 269.124 82.000,269.224 81.876,269.115 81.556 C 269.011 81.250,268.560 81.052,268.114 81.117 C 267.615 81.188,267.215 80.957,267.076 80.517 C 266.777 79.570,265.502 77.473,265.012 77.122 C 264.798 76.969,264.742 76.725,264.887 76.579 C 265.033 76.434,264.803 75.940,264.376 75.482 C 263.949 75.024,263.600 74.323,263.600 73.925 C 263.600 73.526,263.420 73.200,263.200 73.200 C 262.980 73.200,262.800 72.964,262.800 72.675 C 262.800 72.387,262.475 71.802,262.078 71.375 C 261.680 70.949,261.097 70.015,260.780 69.300 C 260.464 68.585,260.069 68.000,259.902 68.000 C 259.736 68.000,259.600 67.730,259.600 67.400 C 259.600 67.070,259.420 66.800,259.200 66.800 C 258.980 66.800,258.800 66.530,258.800 66.200 C 258.800 65.870,258.620 65.600,258.400 65.600 C 257.823 65.600,257.907 64.501,258.500 64.283 C 258.887 64.141,258.874 63.976,258.441 63.550 C 258.088 63.202,257.987 63.184,258.165 63.500 C 258.338 63.807,258.206 64.000,257.824 64.000 C 257.467 64.000,257.200 63.658,257.200 63.200 C 257.200 62.760,257.391 62.400,257.624 62.400 C 257.857 62.400,257.924 62.201,257.774 61.957 C 257.583 61.649,257.399 61.678,257.166 62.055 C 256.799 62.649,255.638 61.486,255.613 60.500 C 255.606 60.225,255.420 60.000,255.200 60.000 C 254.980 60.000,254.800 59.640,254.800 59.200 C 254.800 58.760,254.632 58.400,254.427 58.400 C 254.222 58.400,253.940 58.041,253.801 57.602 C 253.662 57.164,253.334 56.572,253.074 56.287 C 252.210 55.343,251.570 53.973,251.810 53.584 C 251.940 53.373,251.812 53.196,251.524 53.190 C 250.880 53.178,248.645 48.574,249.002 47.996 C 249.144 47.767,249.062 47.630,248.820 47.690 C 248.578 47.751,248.069 47.260,247.690 46.600 C 247.310 45.940,246.842 45.285,246.649 45.145 C 246.456 45.004,246.420 44.691,246.570 44.449 C 246.741 44.173,246.611 44.098,246.221 44.247 C 245.879 44.378,245.600 44.286,245.600 44.043 C 245.600 43.799,245.825 43.595,246.100 43.588 C 246.375 43.581,246.251 43.373,245.825 43.126 C 244.615 42.424,242.399 40.083,242.406 39.513 C 242.410 39.153,242.528 39.179,242.800 39.600 C 243.094 40.056,243.189 40.071,243.194 39.663 C 243.197 39.367,242.840 39.031,242.400 38.916 C 241.671 38.725,241.424 38.313,241.553 37.500 C 241.579 37.335,241.221 37.200,240.757 37.200 C 240.186 37.200,239.986 37.014,240.137 36.620 C 240.293 36.212,240.167 36.114,239.710 36.290 C 239.242 36.469,239.127 36.368,239.295 35.928 C 239.615 35.094,238.239 33.921,237.641 34.519 C 237.320 34.840,237.200 34.830,237.200 34.480 C 237.200 34.216,236.919 34.000,236.576 34.000 C 236.233 34.000,236.064 33.820,236.200 33.600 C 236.336 33.380,236.210 33.200,235.920 33.200 C 235.333 33.200,234.170 31.607,234.338 31.032 C 234.397 30.830,234.203 30.866,233.906 31.112 C 233.360 31.565,232.100 30.252,232.327 29.466 C 232.380 29.282,231.878 29.251,231.211 29.398 C 230.291 29.600,229.939 29.506,229.748 29.009 C 229.610 28.649,229.250 28.449,228.948 28.564 C 228.588 28.703,228.400 28.478,228.400 27.907 C 228.400 27.233,228.293 27.147,227.920 27.520 C 227.257 28.183,226.597 28.127,227.155 27.455 C 227.520 27.015,227.405 26.931,226.558 27.024 C 225.801 27.107,225.453 26.925,225.308 26.370 C 225.078 25.491,224.576 25.365,224.233 26.100 C 224.047 26.500,223.953 26.500,223.767 26.100 C 223.638 25.825,223.188 25.600,222.767 25.600 C 222.345 25.600,222.000 25.420,222.000 25.200 C 222.000 24.980,221.539 24.800,220.976 24.800 C 220.396 24.800,220.060 24.627,220.200 24.400 C 220.347 24.162,219.871 24.000,219.024 24.000 C 217.824 24.000,217.600 23.862,217.600 23.120 C 217.600 22.436,217.493 22.347,217.120 22.720 C 216.475 23.365,214.935 23.330,214.680 22.664 C 214.544 22.311,214.037 22.192,213.193 22.316 C 212.488 22.419,211.796 22.345,211.656 22.152 C 211.266 21.616,209.478 20.679,209.782 21.170 C 209.954 21.450,209.479 21.600,208.424 21.600 C 207.531 21.600,206.800 21.420,206.800 21.200 C 206.800 20.967,205.467 20.800,203.600 20.800 L 200.400 20.800 200.400 48.200 " stroke="none" fill="#f39c1c" fill-rule="evenodd"></path><path id="path3" d="M172.195 169.400 C 172.195 205.700,172.242 220.491,172.300 202.268 C 172.358 184.046,172.358 154.346,172.300 136.268 C 172.242 118.191,172.195 133.100,172.195 169.400 " stroke="none" fill="#b19934" fill-rule="evenodd"></path><path id="path4" d="M215.200 80.146 C 215.200 80.256,215.740 80.730,216.400 81.200 C 217.060 81.670,217.600 81.964,217.600 81.854 C 217.600 81.744,217.060 81.270,216.400 80.800 C 215.740 80.330,215.200 80.036,215.200 80.146 M227.800 169.200 C 227.800 206.998,227.932 237.716,228.094 237.462 C 228.256 237.208,228.388 206.490,228.388 169.200 C 228.388 131.910,228.256 101.192,228.094 100.938 C 227.932 100.684,227.800 131.402,227.800 169.200 M219.785 254.500 L 217.800 256.600 219.900 254.615 C 221.055 253.523,222.000 252.578,222.000 252.515 C 222.000 252.217,221.629 252.549,219.785 254.500 M219.400 297.600 C 220.259 298.480,221.052 299.200,221.162 299.200 C 221.272 299.200,220.659 298.480,219.800 297.600 C 218.941 296.720,218.148 296.000,218.038 296.000 C 217.928 296.000,218.541 296.720,219.400 297.600 M227.800 317.600 C 227.800 319.318,227.932 320.516,228.094 320.262 C 228.256 320.008,228.388 318.810,228.388 317.600 C 228.388 316.390,228.256 315.192,228.094 314.938 C 227.932 314.684,227.800 315.882,227.800 317.600 M219.785 337.300 L 217.800 339.400 219.900 337.415 C 221.055 336.323,222.000 335.378,222.000 335.315 C 222.000 335.017,221.629 335.349,219.785 337.300 " stroke="none" fill="#c59a2c" fill-rule="evenodd"></path><path id="path5" d="M197.600 76.384 C 196.121 76.554,197.103 76.636,200.600 76.635 C 204.109 76.633,205.215 76.539,204.000 76.346 C 201.945 76.019,200.707 76.026,197.600 76.384 M192.800 77.200 L 191.800 77.520 192.800 77.554 C 193.350 77.573,194.070 77.413,194.400 77.200 C 195.164 76.706,194.342 76.706,192.800 77.200 M206.590 77.184 C 206.732 77.413,207.317 77.600,207.890 77.600 C 209.144 77.600,208.999 77.408,207.466 77.040 C 206.723 76.862,206.421 76.911,206.590 77.184 M187.531 79.296 C 184.026 81.081,178.219 86.326,176.677 89.100 C 175.651 90.946,176.088 90.710,177.419 88.700 C 180.282 84.373,187.936 78.400,190.617 78.400 C 190.912 78.400,191.264 78.220,191.400 78.000 C 191.855 77.263,190.885 77.588,187.531 79.296 M209.200 77.765 C 209.200 77.862,210.213 78.405,211.451 78.972 C 215.937 81.026,219.803 84.361,223.317 89.210 C 224.007 90.162,224.007 90.147,223.317 88.817 C 222.268 86.795,216.945 81.601,214.400 80.117 C 212.098 78.774,209.200 77.464,209.200 77.765 M172.978 98.178 C 172.827 98.981,172.804 99.737,172.926 99.860 C 173.048 99.982,173.272 99.425,173.422 98.622 C 173.573 97.819,173.596 97.063,173.474 96.940 C 173.352 96.818,173.128 97.375,172.978 98.178 M227.395 169.400 C 227.395 207.240,227.443 222.661,227.500 203.668 C 227.557 184.676,227.557 153.716,227.500 134.868 C 227.442 116.021,227.395 131.560,227.395 169.400 M172.595 169.200 C 172.595 206.490,172.642 221.745,172.700 203.100 C 172.757 184.455,172.757 153.945,172.700 135.300 C 172.642 116.655,172.595 131.910,172.595 169.200 M172.834 239.400 C 172.872 240.766,173.538 242.042,173.566 240.800 C 173.578 240.250,173.413 239.530,173.200 239.200 C 172.880 238.705,172.816 238.740,172.834 239.400 M226.673 240.553 C 226.523 240.945,226.411 241.566,226.425 241.933 C 226.442 242.375,226.581 242.274,226.837 241.634 C 227.049 241.103,227.161 240.482,227.085 240.254 C 227.009 240.027,226.824 240.161,226.673 240.553 M173.606 242.876 C 173.618 243.881,174.387 244.708,174.394 243.724 C 174.397 243.242,174.220 242.736,174.000 242.600 C 173.780 242.464,173.603 242.588,173.606 242.876 M176.034 248.375 C 179.023 253.694,189.481 262.252,191.061 260.672 C 191.200 260.533,190.974 260.308,190.557 260.172 C 189.224 259.738,186.205 258.210,186.067 257.900 C 185.993 257.735,185.723 257.597,185.467 257.593 C 183.812 257.567,176.000 249.009,176.000 247.222 C 176.000 246.990,175.808 246.800,175.574 246.800 C 175.340 246.800,175.547 247.509,176.034 248.375 M222.832 249.751 C 221.273 252.144,217.453 256.132,215.200 257.719 L 214.200 258.423 215.200 257.946 C 217.560 256.820,226.038 247.200,224.671 247.200 C 224.573 247.200,223.746 248.348,222.832 249.751 M192.200 261.200 C 193.396 261.714,194.395 261.714,193.600 261.200 C 193.270 260.987,192.640 260.822,192.200 260.834 L 191.400 260.856 192.200 261.200 M207.200 261.200 C 206.667 261.545,206.667 261.588,207.200 261.588 C 207.530 261.588,208.070 261.413,208.400 261.200 C 208.933 260.855,208.933 260.812,208.400 260.812 C 208.070 260.812,207.530 260.987,207.200 261.200 M195.800 262.000 C 196.460 262.168,197.720 262.305,198.600 262.305 C 200.117 262.305,200.138 262.290,199.000 262.000 C 198.340 261.832,197.080 261.695,196.200 261.695 C 194.683 261.695,194.662 261.710,195.800 262.000 M203.200 262.000 C 202.220 262.314,202.224 262.321,203.400 262.354 C 204.060 262.373,204.870 262.213,205.200 262.000 C 205.958 261.510,204.730 261.510,203.200 262.000 M196.000 290.400 C 194.795 290.654,194.945 290.702,197.076 290.747 C 198.438 290.776,199.664 290.620,199.800 290.400 C 200.081 289.946,198.158 289.946,196.000 290.400 M203.000 290.400 C 203.440 290.589,204.250 290.738,204.800 290.732 L 205.800 290.720 204.800 290.400 C 204.250 290.224,203.440 290.074,203.000 290.068 L 202.200 290.056 203.000 290.400 M192.200 291.200 C 191.486 291.507,191.515 291.547,192.476 291.572 C 193.068 291.587,193.664 291.420,193.800 291.200 C 194.095 290.722,193.311 290.722,192.200 291.200 M186.835 293.419 C 181.421 296.514,173.092 306.025,174.534 307.467 C 174.650 307.583,175.109 306.895,175.555 305.939 C 177.520 301.723,183.735 294.800,185.556 294.800 C 185.800 294.800,186.000 294.662,186.000 294.494 C 186.000 294.326,186.720 293.877,187.600 293.496 C 188.480 293.114,189.200 292.712,189.200 292.601 C 189.200 292.208,188.577 292.423,186.835 293.419 M211.603 292.677 C 211.606 293.006,213.645 294.088,213.859 293.875 C 213.923 293.811,213.441 293.442,212.788 293.056 C 212.134 292.670,211.601 292.500,211.603 292.677 M215.600 295.059 C 218.528 297.408,221.223 300.166,222.430 302.047 C 223.846 304.254,224.419 304.673,223.323 302.700 C 222.418 301.072,216.543 295.089,215.200 294.428 C 214.500 294.083,214.620 294.272,215.600 295.059 M174.046 308.267 C 174.021 308.524,173.884 309.064,173.741 309.467 C 173.540 310.036,173.594 310.097,173.979 309.742 C 174.252 309.491,174.389 308.951,174.284 308.542 C 174.179 308.134,174.072 308.010,174.046 308.267 M226.412 310.800 C 226.412 311.130,226.587 311.670,226.800 312.000 C 227.145 312.533,227.188 312.533,227.188 312.000 C 227.188 311.670,227.013 311.130,226.800 310.800 C 226.455 310.267,226.412 310.267,226.412 310.800 M173.022 311.929 C 172.858 312.659,172.822 313.356,172.942 313.476 C 173.243 313.777,173.720 311.756,173.499 311.117 C 173.401 310.833,173.186 311.198,173.022 311.929 M227.340 317.600 C 227.340 319.470,227.409 320.235,227.493 319.300 C 227.577 318.365,227.577 316.835,227.493 315.900 C 227.409 314.965,227.340 315.730,227.340 317.600 M172.520 317.600 C 172.520 318.810,172.595 319.305,172.687 318.700 C 172.778 318.095,172.778 317.105,172.687 316.500 C 172.595 315.895,172.520 316.390,172.520 317.600 M172.834 322.200 C 172.872 323.566,173.538 324.842,173.566 323.600 C 173.578 323.050,173.413 322.330,173.200 322.000 C 172.880 321.505,172.816 321.540,172.834 322.200 M226.673 323.353 C 226.523 323.745,226.411 324.366,226.425 324.733 C 226.442 325.175,226.581 325.074,226.837 324.434 C 227.049 323.903,227.161 323.282,227.085 323.054 C 227.009 322.827,226.824 322.961,226.673 323.353 M173.628 325.476 C 173.718 326.515,174.344 327.396,174.372 326.524 C 174.387 326.042,174.220 325.536,174.000 325.400 C 173.780 325.264,173.613 325.298,173.628 325.476 M174.400 327.844 C 174.400 328.489,177.009 332.865,178.609 334.904 C 181.176 338.174,188.289 343.445,189.074 342.659 C 189.196 342.538,188.553 342.117,187.647 341.725 C 186.741 341.332,186.000 340.874,186.000 340.706 C 186.000 340.538,185.775 340.399,185.500 340.399 C 184.966 340.397,182.200 338.174,180.276 336.200 C 178.838 334.724,176.388 331.116,175.456 329.100 C 174.821 327.727,174.400 327.226,174.400 327.844 M222.807 332.589 C 220.912 335.498,216.355 339.999,214.453 340.841 C 213.764 341.146,213.200 341.542,213.200 341.720 C 213.200 343.069,220.533 336.552,222.780 333.204 C 224.615 330.472,224.894 330.000,224.671 330.000 C 224.573 330.000,223.735 331.165,222.807 332.589 M192.200 344.000 C 193.396 344.514,194.395 344.514,193.600 344.000 C 193.270 343.787,192.640 343.622,192.200 343.634 L 191.400 343.656 192.200 344.000 M207.200 344.000 C 206.667 344.345,206.667 344.388,207.200 344.388 C 207.530 344.388,208.070 344.213,208.400 344.000 C 208.933 343.655,208.933 343.612,208.400 343.612 C 208.070 343.612,207.530 343.787,207.200 344.000 M195.800 344.800 C 197.523 345.239,200.569 345.239,199.200 344.800 C 198.650 344.624,197.390 344.483,196.400 344.487 C 194.784 344.494,194.723 344.526,195.800 344.800 M203.200 344.800 L 202.200 345.120 203.200 345.132 C 203.750 345.138,204.560 344.989,205.000 344.800 L 205.800 344.456 205.000 344.468 C 204.560 344.474,203.750 344.624,203.200 344.800 " stroke="none" fill="#6c6c4c" fill-rule="evenodd"></path><path id="path6" d="M200.033 75.744 C 200.125 75.823,201.100 75.991,202.200 76.118 C 203.487 76.267,203.915 76.226,203.400 76.003 C 202.636 75.672,199.686 75.445,200.033 75.744 M219.784 84.400 C 222.944 87.879,223.061 87.990,222.097 86.600 C 221.640 85.940,220.400 84.590,219.344 83.600 C 217.636 82.000,217.685 82.089,219.784 84.400 M180.181 84.500 L 178.600 86.200 180.300 84.619 C 181.881 83.148,182.184 82.800,181.881 82.800 C 181.816 82.800,181.051 83.565,180.181 84.500 M227.096 98.646 C 227.212 99.721,227.372 100.675,227.453 100.767 C 227.772 101.129,227.565 97.765,227.237 97.246 C 227.022 96.907,226.968 97.451,227.096 98.646 M227.795 169.200 C 227.795 206.710,227.842 222.055,227.900 203.300 C 227.957 184.545,227.957 153.855,227.900 135.100 C 227.842 116.345,227.795 131.690,227.795 169.200 M227.190 239.681 C 227.084 240.716,227.145 241.415,227.326 241.234 C 227.507 241.053,227.593 240.207,227.519 239.353 L 227.383 237.800 227.190 239.681 M219.586 254.300 L 217.400 256.600 219.700 254.414 C 221.837 252.382,222.183 252.000,221.886 252.000 C 221.824 252.000,220.789 253.035,219.586 254.300 M213.800 258.800 C 213.140 259.237,212.780 259.592,213.000 259.588 C 213.401 259.582,215.576 258.023,215.200 258.012 C 215.090 258.008,214.460 258.363,213.800 258.800 M205.200 262.006 C 204.778 262.282,205.015 262.323,206.000 262.142 C 207.725 261.825,208.051 261.598,206.767 261.606 C 206.235 261.609,205.530 261.789,205.200 262.006 M200.900 262.687 C 201.505 262.778,202.495 262.778,203.100 262.687 C 203.705 262.595,203.210 262.520,202.000 262.520 C 200.790 262.520,200.295 262.595,200.900 262.687 M200.033 289.746 C 200.125 289.826,201.370 289.987,202.800 290.102 C 204.327 290.226,205.070 290.178,204.600 289.985 C 203.826 289.667,199.696 289.451,200.033 289.746 M205.633 290.543 C 205.725 290.621,206.430 290.801,207.200 290.942 C 208.185 291.123,208.422 291.082,208.000 290.806 C 207.458 290.450,205.237 290.203,205.633 290.543 M219.600 298.200 C 220.795 299.410,221.863 300.400,221.973 300.400 C 222.083 300.400,221.195 299.410,220.000 298.200 C 218.805 296.990,217.737 296.000,217.627 296.000 C 217.517 296.000,218.405 296.990,219.600 298.200 M224.708 305.334 C 225.309 306.528,225.874 307.437,225.964 307.355 C 226.168 307.169,224.369 303.628,223.934 303.359 C 223.759 303.251,224.108 304.140,224.708 305.334 M226.244 309.000 C 226.573 310.471,226.802 310.790,226.794 309.767 C 226.791 309.345,226.605 308.730,226.382 308.400 C 226.085 307.962,226.048 308.124,226.244 309.000 M227.301 313.000 C 227.305 313.880,227.387 314.193,227.483 313.695 C 227.579 313.198,227.575 312.478,227.475 312.095 C 227.375 311.713,227.296 312.120,227.301 313.000 M227.728 317.600 C 227.728 319.030,227.801 319.615,227.889 318.900 C 227.978 318.185,227.978 317.015,227.889 316.300 C 227.801 315.585,227.728 316.170,227.728 317.600 M227.190 322.481 C 227.084 323.516,227.145 324.215,227.326 324.034 C 227.507 323.853,227.593 323.007,227.519 322.153 L 227.383 320.600 227.190 322.481 M225.457 328.284 C 225.323 328.678,225.036 329.405,224.819 329.900 C 224.179 331.364,224.703 330.925,225.434 329.386 C 225.803 328.608,226.014 327.881,225.903 327.770 C 225.792 327.659,225.592 327.890,225.457 328.284 M219.188 337.500 L 216.600 340.200 219.300 337.612 C 220.785 336.188,222.000 334.973,222.000 334.912 C 222.000 334.617,221.593 334.992,219.188 337.500 M205.000 344.819 C 204.442 345.071,204.685 345.107,205.800 344.938 C 206.680 344.804,207.475 344.628,207.567 344.547 C 207.910 344.244,205.768 344.471,205.000 344.819 M200.900 345.487 C 201.505 345.578,202.495 345.578,203.100 345.487 C 203.705 345.395,203.210 345.320,202.000 345.320 C 200.790 345.320,200.295 345.395,200.900 345.487 " stroke="none" fill="#ac7c34" fill-rule="evenodd"></path><path id="path7" d="M199.872 20.384 C 199.832 20.503,199.892 33.020,200.004 48.200 L 200.208 75.800 200.304 48.300 L 200.400 20.800 202.100 20.794 C 203.351 20.789,203.642 20.685,203.200 20.397 C 202.590 19.999,200.003 19.989,199.872 20.384 M206.800 21.200 C 206.800 21.420,207.531 21.600,208.424 21.600 C 209.404 21.600,209.949 21.442,209.800 21.200 C 209.664 20.980,208.933 20.800,208.176 20.800 C 207.419 20.800,206.800 20.980,206.800 21.200 M211.600 22.000 C 211.600 22.220,212.129 22.400,212.776 22.400 C 213.423 22.400,214.064 22.220,214.200 22.000 C 214.347 21.762,213.871 21.600,213.024 21.600 C 212.241 21.600,211.600 21.780,211.600 22.000 M214.800 22.800 C 214.800 23.020,215.250 23.200,215.800 23.200 C 216.350 23.200,216.800 23.020,216.800 22.800 C 216.800 22.580,216.350 22.400,215.800 22.400 C 215.250 22.400,214.800 22.580,214.800 22.800 M217.600 23.600 C 217.600 23.820,218.095 23.997,218.700 23.994 C 219.557 23.989,219.668 23.902,219.200 23.600 C 218.417 23.094,217.600 23.094,217.600 23.600 M220.200 24.400 C 220.064 24.620,220.334 24.800,220.800 24.800 C 221.266 24.800,221.536 24.620,221.400 24.400 C 221.264 24.180,220.994 24.000,220.800 24.000 C 220.606 24.000,220.336 24.180,220.200 24.400 M222.000 25.203 C 222.000 25.421,222.345 25.600,222.767 25.600 C 223.188 25.600,223.614 25.825,223.712 26.100 C 223.810 26.375,224.038 26.462,224.219 26.293 C 224.399 26.125,224.336 25.776,224.079 25.519 C 223.472 24.912,222.000 24.688,222.000 25.203 M225.421 26.754 C 225.653 26.987,225.806 27.030,226.824 27.150 C 227.057 27.177,227.136 27.380,227.000 27.600 C 226.864 27.820,226.933 28.000,227.153 28.000 C 227.899 28.000,227.999 27.286,227.298 26.970 C 226.424 26.577,225.091 26.424,225.421 26.754 M228.400 28.222 C 228.400 28.526,228.647 28.680,228.948 28.564 C 229.250 28.449,229.604 28.634,229.736 28.977 C 229.867 29.320,230.245 29.600,230.575 29.600 C 231.543 29.600,230.882 28.606,229.589 28.118 C 228.627 27.755,228.400 27.775,228.400 28.222 M232.843 30.721 C 233.128 31.176,233.490 31.468,233.648 31.370 C 233.806 31.272,234.291 31.644,234.726 32.196 C 235.160 32.748,235.725 33.200,235.981 33.200 C 236.237 33.200,236.336 33.380,236.200 33.600 C 236.064 33.820,236.233 34.000,236.576 34.000 C 236.919 34.000,237.200 34.210,237.200 34.467 C 237.200 34.723,237.328 34.805,237.485 34.648 C 237.786 34.348,235.746 32.328,233.597 30.798 C 232.385 29.935,232.350 29.931,232.843 30.721 M239.200 35.767 C 239.200 36.188,240.405 37.328,240.621 37.112 C 240.722 37.011,240.444 36.602,240.002 36.202 C 239.561 35.803,239.200 35.607,239.200 35.767 M242.400 39.782 C 242.400 40.074,245.539 43.200,245.833 43.200 C 246.188 43.200,245.960 42.843,244.900 41.742 C 243.492 40.280,242.400 39.424,242.400 39.782 M246.609 44.385 C 246.438 44.662,246.456 45.004,246.649 45.145 C 247.142 45.503,248.198 47.349,249.707 50.492 C 250.418 51.973,251.236 53.188,251.524 53.192 C 251.812 53.196,251.940 53.373,251.810 53.584 C 251.570 53.973,252.210 55.343,253.074 56.287 C 253.334 56.572,253.662 57.164,253.801 57.602 C 253.940 58.041,254.222 58.400,254.427 58.400 C 254.632 58.400,254.800 58.760,254.800 59.200 C 254.800 59.640,254.980 60.000,255.200 60.000 C 255.420 60.000,255.600 60.236,255.600 60.525 C 255.600 60.813,255.960 61.436,256.400 61.908 C 256.840 62.380,257.200 63.044,257.200 63.383 C 257.200 63.722,257.380 64.000,257.600 64.000 C 258.413 64.000,257.884 62.734,255.475 58.919 C 254.943 58.075,253.973 56.399,253.320 55.193 C 252.667 53.987,251.743 52.320,251.267 51.488 C 250.790 50.656,250.400 49.701,250.400 49.364 C 250.400 49.028,250.220 48.864,250.000 49.000 C 249.780 49.136,249.600 48.967,249.600 48.624 C 249.600 48.281,249.409 48.000,249.176 48.000 C 248.943 48.000,248.856 47.832,248.983 47.628 C 249.109 47.423,249.028 47.141,248.803 47.002 C 248.577 46.862,248.061 46.103,247.657 45.314 C 247.150 44.326,246.824 44.037,246.609 44.385 M258.000 65.000 C 258.000 65.330,258.180 65.600,258.400 65.600 C 258.620 65.600,258.800 65.870,258.800 66.200 C 258.800 66.530,258.980 66.800,259.200 66.800 C 259.420 66.800,259.600 67.070,259.600 67.400 C 259.600 67.730,259.736 68.000,259.902 68.000 C 260.069 68.000,260.464 68.585,260.780 69.300 C 261.097 70.015,261.680 70.949,262.078 71.375 C 262.475 71.802,262.800 72.387,262.800 72.675 C 262.800 72.964,262.980 73.200,263.200 73.200 C 263.420 73.200,263.600 73.526,263.600 73.925 C 263.600 74.323,263.949 75.024,264.376 75.482 C 264.803 75.940,265.033 76.434,264.887 76.579 C 264.742 76.725,264.798 76.969,265.012 77.122 C 265.497 77.469,266.775 79.566,267.071 80.500 C 267.266 81.114,268.400 81.536,268.400 80.995 C 268.400 80.754,267.491 79.091,267.200 78.800 C 267.090 78.690,266.803 78.240,266.562 77.800 C 265.522 75.898,264.987 74.987,264.800 74.800 C 264.404 74.404,263.146 72.185,262.929 71.500 C 262.807 71.115,262.548 70.800,262.353 70.800 C 262.159 70.800,262.000 70.517,262.000 70.171 C 262.000 69.826,261.728 69.271,261.396 68.939 C 261.064 68.607,260.912 68.142,261.058 67.906 C 261.215 67.651,261.136 67.593,260.862 67.762 C 260.588 67.931,260.400 67.793,260.400 67.424 C 260.400 67.081,260.220 66.800,260.000 66.800 C 259.780 66.800,259.600 66.517,259.600 66.171 C 259.600 65.565,258.698 64.400,258.229 64.400 C 258.103 64.400,258.000 64.670,258.000 65.000 M268.232 81.948 C 268.076 82.200,268.219 82.509,268.549 82.636 C 268.879 82.763,269.052 83.121,268.932 83.433 C 268.812 83.745,268.903 84.000,269.134 84.000 C 269.907 84.000,269.943 83.385,269.226 82.434 C 268.752 81.806,268.420 81.644,268.232 81.948 M269.600 84.600 C 269.600 84.930,269.736 85.200,269.902 85.200 C 270.069 85.200,270.459 85.785,270.770 86.500 C 271.081 87.215,271.440 87.890,271.568 88.000 C 271.696 88.110,272.103 88.740,272.473 89.400 C 272.843 90.060,273.473 90.664,273.873 90.743 C 274.486 90.864,274.459 90.762,273.700 90.096 C 273.205 89.662,272.787 89.057,272.771 88.753 C 272.755 88.449,272.397 87.660,271.977 87.000 C 271.556 86.340,271.034 85.395,270.816 84.900 C 270.368 83.882,269.600 83.692,269.600 84.600 M273.600 91.600 C 273.600 91.820,273.780 92.000,274.000 92.000 C 274.220 92.000,274.400 92.332,274.400 92.738 C 274.400 93.144,274.760 93.802,275.200 94.200 C 275.640 94.598,276.000 95.166,276.000 95.462 C 276.000 95.758,276.180 96.000,276.400 96.000 C 276.620 96.000,276.800 96.360,276.800 96.800 C 276.800 97.240,276.980 97.600,277.200 97.600 C 277.420 97.600,277.600 97.870,277.600 98.200 C 277.600 98.530,277.780 98.800,278.000 98.800 C 278.220 98.800,278.400 99.070,278.400 99.400 C 278.400 99.730,278.580 100.000,278.800 100.000 C 279.020 100.000,279.200 100.360,279.200 100.800 C 279.200 101.240,279.380 101.600,279.600 101.600 C 279.820 101.600,280.006 101.825,280.013 102.100 C 280.030 102.764,281.132 104.201,281.411 103.923 C 281.617 103.717,279.353 99.233,278.824 98.800 C 278.690 98.690,278.135 97.745,277.591 96.700 C 277.047 95.655,276.466 94.800,276.301 94.800 C 276.135 94.800,276.000 94.530,276.000 94.200 C 276.000 93.870,275.820 93.600,275.600 93.600 C 275.380 93.600,275.200 93.317,275.200 92.971 C 275.200 92.365,274.298 91.200,273.829 91.200 C 273.703 91.200,273.600 91.380,273.600 91.600 M281.455 105.000 C 281.582 105.330,281.846 105.600,282.043 105.600 C 282.239 105.600,282.362 105.735,282.315 105.900 C 282.181 106.374,283.187 108.000,283.614 108.000 C 283.826 108.000,284.000 107.730,284.000 107.400 C 284.000 107.070,283.865 106.799,283.700 106.797 C 283.535 106.796,283.093 106.256,282.719 105.597 C 282.024 104.377,281.037 103.910,281.455 105.000 M283.600 108.800 C 283.600 109.020,283.882 109.200,284.227 109.200 C 284.672 109.200,284.780 109.432,284.600 110.000 C 284.460 110.440,284.505 110.800,284.699 110.800 C 284.893 110.800,285.352 111.430,285.719 112.200 C 286.087 112.970,286.564 113.600,286.781 113.600 C 286.998 113.600,287.071 113.870,286.945 114.200 C 286.818 114.530,286.880 114.800,287.083 114.800 C 287.285 114.800,287.698 115.430,288.000 116.200 C 288.302 116.970,288.696 117.600,288.875 117.600 C 289.054 117.600,289.200 117.870,289.200 118.200 C 289.200 118.530,289.346 118.800,289.525 118.800 C 289.704 118.800,290.098 119.430,290.400 120.200 C 290.702 120.970,291.096 121.600,291.275 121.600 C 291.454 121.600,291.600 121.870,291.600 122.200 C 291.600 122.530,291.817 122.755,292.081 122.700 C 292.346 122.645,292.590 122.870,292.624 123.200 C 292.736 124.302,293.289 125.600,293.647 125.600 C 293.841 125.600,294.000 125.870,294.000 126.200 C 294.000 126.530,294.180 126.800,294.400 126.800 C 294.863 126.800,294.947 125.732,294.500 125.533 C 294.335 125.460,293.767 124.545,293.237 123.500 C 292.708 122.455,292.123 121.600,291.937 121.600 C 291.752 121.600,291.600 121.328,291.600 120.995 C 291.600 120.274,290.836 118.846,290.000 118.004 C 289.670 117.672,288.801 116.183,288.068 114.696 C 287.335 113.209,286.591 112.082,286.413 112.192 C 286.236 112.302,286.110 112.168,286.133 111.896 C 286.207 111.055,284.682 108.400,284.126 108.400 C 283.837 108.400,283.600 108.580,283.600 108.800 M294.800 127.800 C 294.800 128.130,294.980 128.400,295.200 128.400 C 295.420 128.400,295.600 128.670,295.600 129.000 C 295.600 129.330,295.780 129.600,296.000 129.600 C 296.557 129.600,296.477 128.735,295.843 127.900 C 295.191 127.041,294.800 127.004,294.800 127.800 M296.700 129.429 C 296.201 129.935,296.362 131.071,297.010 131.608 C 297.345 131.886,297.745 131.989,297.898 131.835 C 298.051 131.682,297.975 131.431,297.729 131.278 C 297.482 131.125,297.218 130.578,297.140 130.062 C 297.063 129.546,296.865 129.261,296.700 129.429 M298.000 133.000 C 298.000 133.330,298.210 133.600,298.467 133.600 C 298.723 133.600,298.819 133.715,298.678 133.855 C 298.538 133.995,298.740 134.580,299.126 135.155 C 299.513 135.730,300.092 136.740,300.414 137.400 C 300.735 138.060,301.102 138.690,301.229 138.800 C 301.356 138.910,301.896 139.810,302.430 140.800 C 302.963 141.790,303.504 142.690,303.632 142.800 C 303.760 142.910,304.119 143.585,304.430 144.300 C 304.741 145.015,305.131 145.600,305.298 145.600 C 305.464 145.600,305.600 145.870,305.600 146.200 C 305.600 146.530,305.780 146.800,306.000 146.800 C 306.509 146.800,306.502 146.662,305.936 145.419 C 305.680 144.858,305.310 144.400,305.112 144.400 C 304.915 144.400,304.851 144.241,304.971 144.047 C 305.091 143.853,304.818 143.223,304.366 142.647 C 303.913 142.071,303.673 141.600,303.833 141.600 C 303.993 141.600,303.863 141.285,303.545 140.900 C 303.226 140.515,302.718 139.705,302.415 139.100 C 302.112 138.495,301.715 138.000,301.532 138.000 C 301.350 138.000,301.200 137.717,301.200 137.371 C 301.200 137.026,300.928 136.471,300.596 136.139 C 300.264 135.807,300.095 135.370,300.220 135.168 C 300.345 134.965,300.278 134.800,300.072 134.800 C 299.866 134.800,299.473 134.260,299.200 133.600 C 298.674 132.330,298.000 131.993,298.000 133.000 M306.400 147.800 C 306.400 148.130,306.536 148.400,306.702 148.400 C 306.869 148.400,307.244 148.940,307.536 149.600 C 308.065 150.796,309.391 151.363,308.946 150.202 C 308.819 149.874,308.555 149.704,308.358 149.826 C 308.161 149.948,307.994 149.722,307.987 149.324 C 307.964 147.991,306.400 146.490,306.400 147.800 M308.800 151.800 C 308.800 152.130,308.946 152.400,309.125 152.400 C 309.304 152.400,309.698 153.030,310.000 153.800 C 310.302 154.570,310.696 155.200,310.875 155.200 C 311.054 155.200,311.200 155.470,311.200 155.800 C 311.200 156.130,311.380 156.400,311.600 156.400 C 311.820 156.400,312.000 156.670,312.000 157.000 C 312.000 157.330,312.180 157.600,312.400 157.600 C 312.620 157.600,312.800 157.960,312.800 158.400 C 312.800 158.840,312.954 159.200,313.142 159.200 C 313.331 159.200,314.177 160.595,315.022 162.300 C 315.868 164.005,316.659 165.490,316.780 165.600 C 317.178 165.962,318.021 167.381,318.502 168.500 C 318.992 169.640,320.575 170.121,320.145 169.000 C 320.018 168.670,319.754 168.400,319.557 168.400 C 319.361 168.400,319.200 168.055,319.200 167.633 C 319.200 167.212,319.058 166.807,318.886 166.733 C 318.320 166.494,316.800 164.092,316.800 163.438 C 316.800 163.087,316.642 162.800,316.449 162.800 C 316.255 162.800,315.873 162.260,315.600 161.600 C 315.327 160.940,314.945 160.400,314.751 160.400 C 314.558 160.400,314.400 160.130,314.400 159.800 C 314.400 159.470,314.220 159.200,314.000 159.200 C 313.780 159.200,313.600 158.840,313.600 158.400 C 313.600 157.960,313.442 157.600,313.249 157.600 C 313.055 157.600,312.673 157.060,312.400 156.400 C 312.127 155.740,311.745 155.200,311.551 155.200 C 311.358 155.200,311.200 154.840,311.200 154.400 C 311.200 153.960,311.020 153.600,310.800 153.600 C 310.580 153.600,310.400 153.317,310.400 152.971 C 310.400 152.365,309.498 151.200,309.029 151.200 C 308.903 151.200,308.800 151.470,308.800 151.800 M319.600 170.413 C 319.600 170.639,319.869 170.928,320.198 171.054 C 320.526 171.181,320.683 171.465,320.546 171.687 C 320.410 171.908,320.456 172.204,320.649 172.345 C 321.105 172.677,322.386 174.802,322.671 175.700 C 322.793 176.085,323.052 176.400,323.247 176.400 C 323.441 176.400,323.600 176.678,323.600 177.017 C 323.600 177.356,323.960 178.020,324.400 178.492 C 324.840 178.964,325.200 179.587,325.200 179.875 C 325.200 180.164,325.380 180.400,325.600 180.400 C 325.820 180.400,326.000 180.231,326.000 180.024 C 326.000 179.817,325.820 179.536,325.600 179.400 C 325.380 179.264,325.200 178.803,325.200 178.376 C 325.200 177.949,325.020 177.600,324.800 177.600 C 324.580 177.600,324.400 177.330,324.400 177.000 C 324.400 176.670,324.220 176.400,324.000 176.400 C 323.780 176.400,323.600 176.154,323.600 175.854 C 323.600 175.554,323.228 174.835,322.774 174.258 C 322.320 173.680,322.060 173.026,322.198 172.804 C 322.335 172.582,322.295 172.400,322.110 172.400 C 321.924 172.400,321.454 171.860,321.064 171.200 C 320.365 170.018,319.600 169.606,319.600 170.413 M326.252 180.338 C 325.950 180.807,326.517 182.520,327.199 183.200 C 327.310 183.310,327.761 184.105,328.202 184.967 C 329.059 186.641,330.000 187.291,330.000 186.210 C 330.000 185.848,329.820 185.664,329.600 185.800 C 329.372 185.941,329.200 185.596,329.200 185.000 C 329.200 184.424,329.050 184.045,328.868 184.158 C 328.685 184.271,328.291 183.742,327.993 182.982 C 327.695 182.222,327.317 181.600,327.153 181.600 C 326.990 181.600,326.798 181.195,326.727 180.700 C 326.631 180.027,326.512 179.936,326.252 180.338 M329.855 187.800 C 329.982 188.130,330.246 188.400,330.443 188.400 C 330.639 188.400,330.800 188.130,330.800 187.800 C 330.800 187.470,330.536 187.200,330.213 187.200 C 329.855 187.200,329.715 187.435,329.855 187.800 M330.800 188.925 C 330.800 189.498,332.514 192.400,332.852 192.400 C 333.091 192.400,333.182 192.670,333.055 193.000 C 332.912 193.374,333.058 193.600,333.446 193.600 C 333.800 193.600,333.967 193.385,333.834 193.100 C 333.705 192.825,333.489 192.285,333.354 191.900 C 333.218 191.515,332.948 191.200,332.753 191.200 C 332.559 191.200,332.400 190.917,332.400 190.571 C 332.400 190.226,332.143 189.686,331.829 189.371 C 331.301 188.844,330.800 188.626,330.800 188.925 M333.807 193.989 C 333.527 194.442,334.714 196.400,335.270 196.400 C 335.477 196.400,335.519 196.607,335.362 196.861 C 335.206 197.114,335.410 197.564,335.815 197.861 C 336.221 198.157,336.432 198.400,336.283 198.400 C 336.135 198.400,336.354 199.005,336.769 199.745 C 337.185 200.485,337.767 201.520,338.062 202.045 C 338.358 202.570,338.690 203.090,338.800 203.200 C 339.196 203.596,340.454 205.815,340.671 206.500 C 340.943 207.356,341.600 207.427,341.600 206.600 C 341.600 206.270,341.409 206.000,341.176 206.000 C 340.943 206.000,340.855 205.835,340.980 205.632 C 341.105 205.430,340.966 205.023,340.671 204.728 C 340.376 204.433,340.011 203.699,339.860 203.096 C 339.709 202.493,339.308 202.000,338.969 202.000 C 338.630 202.000,338.450 201.842,338.569 201.650 C 338.688 201.457,338.252 200.512,337.600 199.550 C 336.948 198.587,336.411 197.504,336.407 197.143 C 336.403 196.781,336.119 196.378,335.775 196.246 C 335.431 196.114,335.261 195.824,335.398 195.603 C 335.535 195.381,335.457 195.200,335.224 195.200 C 334.991 195.200,334.800 194.840,334.800 194.400 C 334.800 193.563,334.219 193.322,333.807 193.989 M341.766 208.100 C 341.895 208.375,342.111 208.915,342.246 209.300 C 342.382 209.685,342.652 210.000,342.847 210.000 C 343.041 210.000,343.200 210.270,343.200 210.600 C 343.200 210.930,343.380 211.200,343.600 211.200 C 343.820 211.200,344.000 211.470,344.000 211.800 C 344.000 212.130,344.180 212.400,344.400 212.400 C 344.620 212.400,344.800 212.130,344.800 211.800 C 344.800 211.470,344.620 211.200,344.400 211.200 C 344.180 211.200,344.000 210.930,344.000 210.600 C 344.000 210.270,343.864 210.000,343.698 210.000 C 343.531 210.000,343.156 209.460,342.864 208.800 C 342.572 208.140,342.153 207.600,341.933 207.600 C 341.713 207.600,341.638 207.825,341.766 208.100 M345.002 212.797 C 344.683 213.313,345.520 215.200,346.068 215.200 C 346.250 215.200,346.400 215.470,346.400 215.800 C 346.400 216.130,346.580 216.400,346.800 216.400 C 347.020 216.400,347.200 216.749,347.200 217.176 C 347.200 217.603,347.383 218.066,347.607 218.204 C 347.830 218.342,347.909 218.623,347.783 218.828 C 347.656 219.032,347.723 219.200,347.931 219.200 C 348.139 219.200,348.608 219.830,348.973 220.600 C 349.339 221.370,349.828 222.000,350.062 222.000 C 350.295 222.000,350.382 222.270,350.255 222.600 C 350.129 222.930,350.164 223.200,350.334 223.200 C 350.504 223.200,351.083 224.097,351.621 225.194 C 352.160 226.290,352.735 227.190,352.900 227.194 C 353.065 227.197,353.200 227.444,353.200 227.742 C 353.200 228.039,353.615 228.731,354.121 229.277 C 354.628 229.824,354.973 230.480,354.888 230.736 C 354.803 230.991,354.928 231.200,355.167 231.200 C 355.405 231.200,355.600 231.560,355.600 232.000 C 355.600 232.440,355.780 232.800,356.000 232.800 C 356.220 232.800,356.400 233.070,356.400 233.400 C 356.400 233.730,356.580 234.000,356.800 234.000 C 357.020 234.000,357.200 234.270,357.200 234.600 C 357.200 234.930,357.380 235.200,357.600 235.200 C 358.193 235.200,358.085 234.428,357.396 233.739 C 357.064 233.407,356.912 232.942,357.058 232.706 C 357.215 232.451,357.136 232.393,356.862 232.562 C 356.608 232.719,356.400 232.651,356.400 232.411 C 356.400 231.821,355.381 229.670,354.405 228.200 C 353.967 227.540,353.385 226.550,353.112 226.000 C 352.840 225.450,352.523 224.910,352.408 224.800 C 351.783 224.199,350.863 222.066,351.111 221.792 C 351.270 221.616,351.175 221.601,350.900 221.759 C 350.591 221.937,350.400 221.809,350.400 221.424 C 350.400 221.081,350.220 220.800,350.000 220.800 C 349.780 220.800,349.600 220.440,349.600 220.000 C 349.600 219.560,349.441 219.200,349.247 219.200 C 349.052 219.200,348.793 218.885,348.671 218.500 C 348.443 217.782,347.171 215.558,346.783 215.200 C 346.664 215.090,346.281 214.397,345.932 213.659 C 345.519 212.785,345.195 212.485,345.002 212.797 M358.300 235.029 C 357.860 235.476,357.934 236.800,358.400 236.800 C 358.620 236.800,358.800 237.070,358.800 237.400 C 358.800 237.730,358.980 238.000,359.200 238.000 C 359.420 238.000,359.600 238.270,359.600 238.600 C 359.600 238.930,359.780 239.200,360.000 239.200 C 360.220 239.200,360.400 238.930,360.400 238.600 C 360.400 238.270,360.220 238.000,360.000 238.000 C 359.780 238.000,359.600 237.640,359.600 237.200 C 359.600 236.760,359.433 236.400,359.228 236.400 C 359.023 236.400,358.798 236.023,358.728 235.562 C 358.658 235.101,358.465 234.861,358.300 235.029 M360.400 239.788 C 360.400 239.996,361.254 241.530,363.144 244.718 C 363.835 245.882,364.400 246.980,364.400 247.158 C 364.400 247.335,364.941 248.226,365.602 249.139 C 366.263 250.051,366.772 250.843,366.734 250.899 C 366.695 250.954,367.113 251.720,367.663 252.600 C 368.213 253.480,368.917 254.785,369.229 255.500 C 369.540 256.215,369.931 256.800,370.098 256.800 C 370.264 256.800,370.400 257.070,370.400 257.400 C 370.400 257.730,370.754 258.000,371.187 258.000 C 372.057 258.000,371.923 257.010,371.007 256.658 C 370.715 256.546,370.351 255.889,370.200 255.198 C 370.048 254.508,369.823 254.044,369.699 254.168 C 369.575 254.291,369.031 253.498,368.490 252.404 C 367.948 251.310,367.112 249.990,366.631 249.472 C 366.151 248.953,365.827 248.320,365.912 248.064 C 365.997 247.809,365.872 247.600,365.633 247.600 C 365.395 247.600,365.200 247.240,365.200 246.800 C 365.200 246.360,365.020 246.000,364.800 246.000 C 364.580 246.000,364.400 245.730,364.400 245.400 C 364.400 245.070,364.220 244.800,364.000 244.800 C 363.780 244.800,363.600 244.530,363.600 244.200 C 363.600 243.870,363.420 243.600,363.200 243.600 C 362.980 243.600,362.800 243.240,362.800 242.800 C 362.800 242.360,362.664 242.000,362.498 242.000 C 362.331 242.000,361.956 241.460,361.664 240.800 C 361.219 239.795,360.400 239.139,360.400 239.788 M371.366 258.900 C 371.495 259.175,371.711 259.715,371.846 260.100 C 372.144 260.944,372.635 261.006,372.930 260.238 C 373.049 259.928,372.829 259.388,372.442 259.038 C 371.600 258.276,371.042 258.204,371.366 258.900 M372.978 260.835 C 372.831 261.074,372.910 261.470,373.155 261.715 C 373.482 262.042,373.600 261.926,373.600 261.280 C 373.600 260.314,373.392 260.165,372.978 260.835 M373.778 262.435 C 373.591 262.738,373.654 263.018,373.929 263.110 C 374.188 263.196,374.400 263.612,374.400 264.033 C 374.400 264.455,374.559 264.800,374.753 264.800 C 374.948 264.800,375.207 265.115,375.329 265.500 C 375.548 266.193,376.811 268.414,377.204 268.800 C 377.316 268.910,377.766 269.697,378.204 270.549 C 378.642 271.401,379.297 272.288,379.660 272.520 C 380.023 272.753,380.229 273.181,380.117 273.471 C 380.006 273.762,380.114 274.000,380.357 274.000 C 381.022 274.000,380.890 273.054,380.100 272.155 C 379.126 271.048,378.400 269.717,378.400 269.039 C 378.400 268.724,378.265 268.407,378.100 268.333 C 377.550 268.089,376.000 265.641,376.000 265.016 C 376.000 264.677,375.842 264.400,375.650 264.400 C 375.457 264.400,375.029 263.842,374.699 263.159 C 374.270 262.273,374.006 262.066,373.778 262.435 M200.180 276.200 C 200.180 283.680,200.234 286.683,200.299 282.874 C 200.365 279.065,200.365 272.945,200.299 269.274 C 200.233 265.603,200.179 268.720,200.180 276.200 M380.683 274.251 C 380.357 274.576,381.504 276.800,381.998 276.800 C 382.205 276.800,382.271 277.070,382.145 277.400 C 382.018 277.730,382.123 278.000,382.378 278.000 C 382.633 278.000,383.030 278.540,383.260 279.200 C 383.691 280.436,384.800 280.868,384.800 279.800 C 384.800 279.470,384.665 279.200,384.499 279.200 C 384.334 279.200,383.769 278.390,383.244 277.400 C 382.719 276.410,382.134 275.600,381.944 275.600 C 381.755 275.600,381.600 275.240,381.600 274.800 C 381.600 274.013,381.175 273.758,380.683 274.251 M384.400 281.400 C 384.400 281.730,384.670 282.000,385.000 282.000 C 385.330 282.000,385.600 281.730,385.600 281.400 C 385.600 281.070,385.330 280.800,385.000 280.800 C 384.670 280.800,384.400 281.070,384.400 281.400 M385.398 282.403 C 385.261 282.624,385.521 283.327,385.975 283.964 C 386.429 284.602,386.800 285.306,386.800 285.528 C 386.800 285.751,386.935 285.993,387.100 286.067 C 387.265 286.140,387.833 287.055,388.363 288.100 C 389.228 289.806,390.718 290.893,390.145 289.400 C 390.018 289.070,389.739 288.800,389.524 288.800 C 389.309 288.800,389.207 288.579,389.297 288.309 C 389.387 288.038,389.138 287.471,388.744 287.048 C 388.350 286.625,388.116 286.135,388.225 285.959 C 388.334 285.784,388.040 285.436,387.574 285.186 C 387.013 284.886,386.793 284.472,386.925 283.966 C 387.035 283.545,386.962 283.200,386.763 283.200 C 386.563 283.200,386.400 282.930,386.400 282.600 C 386.400 281.919,385.773 281.796,385.398 282.403 M390.000 291.000 C 390.000 291.330,390.146 291.600,390.325 291.600 C 390.504 291.600,390.898 292.230,391.200 293.000 C 391.502 293.770,391.867 294.400,392.012 294.400 C 392.156 294.400,392.708 295.255,393.237 296.300 C 393.767 297.345,394.335 298.260,394.500 298.333 C 394.665 298.407,394.800 298.812,394.800 299.233 C 394.800 299.655,394.980 300.000,395.200 300.000 C 395.420 300.000,395.600 300.439,395.600 300.976 C 395.600 301.513,395.780 302.064,396.000 302.200 C 396.220 302.336,396.400 302.797,396.400 303.224 C 396.400 303.651,396.580 304.000,396.800 304.000 C 397.020 304.000,397.200 303.550,397.200 303.000 C 397.200 302.387,396.972 302.000,396.613 302.000 C 396.289 302.000,396.116 301.763,396.227 301.474 C 396.338 301.184,396.162 300.432,395.835 299.802 C 395.508 299.173,395.350 298.482,395.482 298.267 C 395.616 298.050,395.518 298.004,395.262 298.162 C 394.958 298.350,394.800 298.090,394.800 297.400 C 394.800 296.824,394.658 296.441,394.484 296.548 C 394.311 296.655,393.730 295.901,393.194 294.872 C 392.658 293.842,392.122 292.910,392.002 292.800 C 391.882 292.690,391.566 292.105,391.300 291.500 C 390.781 290.318,390.000 290.018,390.000 291.000 M397.200 305.424 C 397.200 306.004,397.373 306.340,397.600 306.200 C 397.820 306.064,398.000 305.603,398.000 305.176 C 398.000 304.749,397.820 304.400,397.600 304.400 C 397.380 304.400,397.200 304.861,397.200 305.424 M397.897 307.100 C 397.620 307.656,397.797 308.599,398.200 308.712 C 398.420 308.774,398.657 308.369,398.727 307.812 C 398.842 306.889,398.255 306.384,397.897 307.100 M398.674 310.839 C 398.424 311.796,398.715 312.800,399.243 312.800 C 399.439 312.800,399.600 312.170,399.600 311.400 C 399.600 309.863,399.021 309.512,398.674 310.839 M399.497 314.300 C 399.131 315.030,399.186 317.544,399.573 317.783 C 399.854 317.957,400.000 317.357,400.000 316.024 C 400.000 314.123,399.847 313.601,399.497 314.300 M399.443 328.495 C 399.260 329.537,399.259 330.887,399.441 331.495 C 399.849 332.863,400.149 330.703,399.912 328.100 L 399.775 326.600 399.443 328.495 M398.684 334.000 C 398.415 335.028,398.784 336.457,399.245 336.172 C 399.707 335.887,399.708 333.200,399.247 333.200 C 399.052 333.200,398.799 333.560,398.684 334.000 M397.898 337.700 C 397.649 338.441,398.036 339.625,398.445 339.372 C 398.914 339.082,398.904 337.200,398.433 337.200 C 398.232 337.200,397.991 337.425,397.898 337.700 M397.200 340.576 C 397.200 341.139,397.380 341.600,397.600 341.600 C 397.820 341.600,398.000 341.251,398.000 340.824 C 398.000 340.397,397.820 339.936,397.600 339.800 C 397.373 339.660,397.200 339.996,397.200 340.576 M396.229 343.261 C 395.490 344.744,395.423 345.600,396.047 345.600 C 396.296 345.600,396.401 345.247,396.284 344.800 C 396.148 344.280,396.272 344.000,396.637 344.000 C 396.971 344.000,397.200 343.593,397.200 343.000 C 397.200 341.682,396.989 341.739,396.229 343.261 M199.908 362.800 C 199.849 372.260,199.935 380.000,200.100 380.000 C 200.265 380.000,200.400 372.260,200.400 362.800 C 200.400 353.340,200.314 345.600,200.208 345.600 C 200.103 345.600,199.968 353.340,199.908 362.800 M394.800 346.800 C 394.800 347.240,394.620 347.600,394.400 347.600 C 394.180 347.600,394.000 347.949,394.000 348.376 C 394.000 348.803,394.180 349.264,394.400 349.400 C 394.628 349.541,394.800 349.196,394.800 348.600 C 394.800 348.024,394.942 347.640,395.115 347.748 C 395.288 347.855,395.466 347.505,395.511 346.971 C 395.555 346.437,395.413 346.000,395.196 346.000 C 394.978 346.000,394.800 346.360,394.800 346.800 M393.200 349.776 C 393.200 350.093,393.380 350.464,393.600 350.600 C 393.820 350.736,394.000 350.477,394.000 350.024 C 394.000 349.571,393.820 349.200,393.600 349.200 C 393.380 349.200,393.200 349.459,393.200 349.776 M392.400 351.400 C 392.400 351.730,392.220 352.000,392.000 352.000 C 391.780 352.000,391.600 352.255,391.600 352.567 C 391.600 352.878,391.391 353.203,391.136 353.288 C 390.820 353.393,390.794 353.660,391.054 354.125 C 391.378 354.704,391.514 354.593,391.944 353.404 C 392.223 352.632,392.620 352.000,392.826 352.000 C 393.032 352.000,393.200 351.730,393.200 351.400 C 393.200 351.070,393.020 350.800,392.800 350.800 C 392.580 350.800,392.400 351.070,392.400 351.400 M389.700 355.398 C 389.425 355.711,389.200 356.160,389.200 356.396 C 389.200 356.633,388.566 357.461,387.791 358.236 C 387.015 359.011,386.485 359.814,386.612 360.019 C 386.877 360.448,388.506 358.943,388.907 357.899 C 389.054 357.515,389.371 357.200,389.611 357.200 C 389.851 357.200,389.949 357.040,389.828 356.845 C 389.707 356.650,389.877 356.268,390.204 355.996 C 390.834 355.474,391.005 354.790,390.500 354.815 C 390.335 354.824,389.975 355.086,389.700 355.398 M385.854 361.002 C 385.728 361.331,385.349 361.600,385.013 361.600 C 384.676 361.600,384.400 361.858,384.400 362.173 C 384.400 362.488,383.860 363.130,383.200 363.600 C 382.540 364.070,382.000 364.712,382.000 365.027 C 382.000 365.342,381.865 365.562,381.700 365.515 C 381.225 365.380,379.537 366.418,378.214 367.658 C 377.546 368.284,376.775 368.797,376.500 368.798 C 376.225 368.799,376.000 368.950,376.000 369.132 C 376.000 369.315,375.505 369.720,374.900 370.032 C 373.483 370.763,372.800 371.417,372.800 372.041 C 372.800 372.332,373.186 372.177,373.726 371.670 C 374.235 371.191,374.837 370.800,375.064 370.800 C 375.291 370.800,375.802 370.440,376.200 370.000 C 376.598 369.560,377.151 369.200,377.429 369.200 C 377.708 369.200,378.521 368.579,379.237 367.819 C 379.953 367.060,380.657 366.511,380.800 366.600 C 380.944 366.689,381.982 365.799,383.107 364.623 C 384.231 363.447,385.281 362.601,385.440 362.743 C 385.599 362.884,385.606 362.787,385.457 362.527 C 385.308 362.267,385.562 361.792,386.023 361.469 C 386.483 361.147,386.684 360.776,386.471 360.644 C 386.258 360.512,385.981 360.674,385.854 361.002 M371.200 372.400 C 371.200 372.620,370.840 372.800,370.400 372.800 C 369.960 372.800,369.600 372.980,369.600 373.200 C 369.600 373.420,369.240 373.600,368.800 373.600 C 368.360 373.600,368.000 373.780,368.000 374.000 C 368.000 374.220,367.604 374.400,367.120 374.400 C 366.459 374.400,366.354 374.514,366.698 374.858 C 367.042 375.202,367.699 375.050,369.336 374.249 C 371.761 373.062,372.948 372.000,371.849 372.000 C 371.492 372.000,371.200 372.180,371.200 372.400 M364.600 375.600 C 364.464 375.820,363.903 376.000,363.353 376.000 C 362.788 376.000,362.460 376.174,362.600 376.400 C 362.736 376.620,363.197 376.800,363.624 376.800 C 364.051 376.800,364.400 376.620,364.400 376.400 C 364.400 376.180,364.760 376.000,365.200 376.000 C 365.640 376.000,366.000 375.820,366.000 375.600 C 366.000 375.380,365.741 375.200,365.424 375.200 C 365.107 375.200,364.736 375.380,364.600 375.600 M360.200 377.200 C 360.060 377.427,360.396 377.600,360.976 377.600 C 361.539 377.600,362.000 377.420,362.000 377.200 C 362.000 376.980,361.651 376.800,361.224 376.800 C 360.797 376.800,360.336 376.980,360.200 377.200 M357.600 378.000 C 357.600 378.220,358.050 378.400,358.600 378.400 C 359.150 378.400,359.600 378.220,359.600 378.000 C 359.600 377.780,359.150 377.600,358.600 377.600 C 358.050 377.600,357.600 377.780,357.600 378.000 M354.000 378.800 C 354.000 379.020,354.641 379.200,355.424 379.200 C 356.271 379.200,356.747 379.038,356.600 378.800 C 356.464 378.580,355.823 378.400,355.176 378.400 C 354.529 378.400,354.000 378.580,354.000 378.800 M347.400 379.600 C 347.245 379.851,348.129 380.000,349.776 380.000 C 351.259 380.000,352.400 379.826,352.400 379.600 C 352.400 379.378,351.341 379.200,350.024 379.200 C 348.717 379.200,347.536 379.380,347.400 379.600 " stroke="none" fill="#f0ac1d" fill-rule="evenodd"></path><path id="path8" d="M196.000 75.995 C 195.591 76.255,195.910 76.299,197.000 76.132 C 198.977 75.829,199.314 75.598,197.767 75.606 C 197.125 75.609,196.330 75.784,196.000 75.995 M171.850 102.050 C 171.523 103.687,171.618 235.442,171.947 236.977 C 172.086 237.625,172.200 207.250,172.200 169.477 C 172.200 131.705,172.178 100.800,172.150 100.800 C 172.123 100.800,171.988 101.363,171.850 102.050 M178.800 253.325 C 178.800 253.394,179.385 253.979,180.100 254.625 L 181.400 255.800 180.225 254.500 C 179.130 253.288,178.800 253.016,178.800 253.325 M194.741 262.501 C 194.943 262.703,195.533 262.801,196.054 262.719 C 196.855 262.593,196.798 262.537,195.687 262.352 C 194.893 262.221,194.519 262.279,194.741 262.501 M195.000 290.000 C 194.708 290.473,195.099 290.473,196.200 290.000 C 196.971 289.669,196.969 289.655,196.124 289.628 C 195.642 289.613,195.136 289.780,195.000 290.000 M171.813 316.500 C 171.683 317.435,171.733 318.740,171.925 319.400 C 172.198 320.341,172.268 319.975,172.253 317.700 C 172.230 314.363,172.143 314.124,171.813 316.500 M178.800 336.125 C 178.800 336.194,179.385 336.779,180.100 337.425 L 181.400 338.600 180.225 337.300 C 179.130 336.088,178.800 335.816,178.800 336.125 M194.741 345.301 C 194.943 345.503,195.533 345.601,196.054 345.519 C 196.855 345.393,196.798 345.337,195.687 345.152 C 194.893 345.021,194.519 345.079,194.741 345.301 " stroke="none" fill="#ccac24" fill-rule="evenodd"></path></g></svg>